<?xml version="1.0" encoding="utf-8" standalone="no"?>
<!DOCTYPE svg PUBLIC "-//W3C//DTD SVG 1.1//EN"
  "http://www.w3.org/Graphics/SVG/1.1/DTD/svg11.dtd">
<svg xmlns:xlink="http://www.w3.org/1999/xlink" width="1440pt" height="720pt" viewBox="0 0 1440 720" xmlns="http://www.w3.org/2000/svg" version="1.1">
 <metadata>
  <rdf:RDF xmlns:dc="http://purl.org/dc/elements/1.1/" xmlns:cc="http://creativecommons.org/ns#" xmlns:rdf="http://www.w3.org/1999/02/22-rdf-syntax-ns#">
   <cc:Work>
    <dc:type rdf:resource="http://purl.org/dc/dcmitype/StillImage"/>
    <dc:date>2022-12-13T12:04:12.676646</dc:date>
    <dc:format>image/svg+xml</dc:format>
    <dc:creator>
     <cc:Agent>
      <dc:title>Matplotlib v3.6.1, https://matplotlib.org/</dc:title>
     </cc:Agent>
    </dc:creator>
   </cc:Work>
  </rdf:RDF>
 </metadata>
 <defs>
  <style type="text/css">*{stroke-linejoin: round; stroke-linecap: butt}</style>
 </defs>
 <g id="figure_1">
  <g id="patch_1">
   <path d="M 0 720 
L 1440 720 
L 1440 0 
L 0 0 
L 0 720 
z
" style="fill: none"/>
  </g>
  <g id="axes_1">
   <g id="matplotlib.axis_1">
    <g id="xtick_1">
     <g id="line2d_1">
      <defs>
       <path id="mdd162bd61a" d="M 0 0 
L 0 20 
" style="stroke: #d3d3d3; stroke-width: 7"/>
      </defs>
      <g>
       <use xlink:href="#mdd162bd61a" x="185.9" y="549.04" style="fill: #d3d3d3; stroke: #d3d3d3; stroke-width: 7"/>
      </g>
     </g>
     <g id="text_1">
      <!-- 0 -->
      <g transform="translate(173.175 609.43375) scale(0.4 -0.4)">
       <defs>
        <path id="DejaVuSans-30" d="M 2034 4250 
Q 1547 4250 1301 3770 
Q 1056 3291 1056 2328 
Q 1056 1369 1301 889 
Q 1547 409 2034 409 
Q 2525 409 2770 889 
Q 3016 1369 3016 2328 
Q 3016 3291 2770 3770 
Q 2525 4250 2034 4250 
z
M 2034 4750 
Q 2819 4750 3233 4129 
Q 3647 3509 3647 2328 
Q 3647 1150 3233 529 
Q 2819 -91 2034 -91 
Q 1250 -91 836 529 
Q 422 1150 422 2328 
Q 422 3509 836 4129 
Q 1250 4750 2034 4750 
z
" transform="scale(0.015625)"/>
       </defs>
       <use xlink:href="#DejaVuSans-30"/>
      </g>
     </g>
    </g>
    <g id="xtick_2">
     <g id="line2d_2">
      <g>
       <use xlink:href="#mdd162bd61a" x="273.816783" y="549.04" style="fill: #d3d3d3; stroke: #d3d3d3; stroke-width: 7"/>
      </g>
     </g>
     <g id="text_2">
      <!-- 5 -->
      <g transform="translate(261.091783 609.43375) scale(0.4 -0.4)">
       <defs>
        <path id="DejaVuSans-35" d="M 691 4666 
L 3169 4666 
L 3169 4134 
L 1269 4134 
L 1269 2991 
Q 1406 3038 1543 3061 
Q 1681 3084 1819 3084 
Q 2600 3084 3056 2656 
Q 3513 2228 3513 1497 
Q 3513 744 3044 326 
Q 2575 -91 1722 -91 
Q 1428 -91 1123 -41 
Q 819 9 494 109 
L 494 744 
Q 775 591 1075 516 
Q 1375 441 1709 441 
Q 2250 441 2565 725 
Q 2881 1009 2881 1497 
Q 2881 1984 2565 2268 
Q 2250 2553 1709 2553 
Q 1456 2553 1204 2497 
Q 953 2441 691 2322 
L 691 4666 
z
" transform="scale(0.015625)"/>
       </defs>
       <use xlink:href="#DejaVuSans-35"/>
      </g>
     </g>
    </g>
    <g id="xtick_3">
     <g id="line2d_3">
      <g>
       <use xlink:href="#mdd162bd61a" x="361.733566" y="549.04" style="fill: #d3d3d3; stroke: #d3d3d3; stroke-width: 7"/>
      </g>
     </g>
     <g id="text_3">
      <!-- 10 -->
      <g transform="translate(336.283566 609.43375) scale(0.4 -0.4)">
       <defs>
        <path id="DejaVuSans-31" d="M 794 531 
L 1825 531 
L 1825 4091 
L 703 3866 
L 703 4441 
L 1819 4666 
L 2450 4666 
L 2450 531 
L 3481 531 
L 3481 0 
L 794 0 
L 794 531 
z
" transform="scale(0.015625)"/>
       </defs>
       <use xlink:href="#DejaVuSans-31"/>
       <use xlink:href="#DejaVuSans-30" x="63.623047"/>
      </g>
     </g>
    </g>
    <g id="xtick_4">
     <g id="line2d_4">
      <g>
       <use xlink:href="#mdd162bd61a" x="449.650349" y="549.04" style="fill: #d3d3d3; stroke: #d3d3d3; stroke-width: 7"/>
      </g>
     </g>
     <g id="text_4">
      <!-- 15 -->
      <g transform="translate(424.200349 609.43375) scale(0.4 -0.4)">
       <use xlink:href="#DejaVuSans-31"/>
       <use xlink:href="#DejaVuSans-35" x="63.623047"/>
      </g>
     </g>
    </g>
    <g id="xtick_5">
     <g id="line2d_5">
      <g>
       <use xlink:href="#mdd162bd61a" x="537.567132" y="549.04" style="fill: #d3d3d3; stroke: #d3d3d3; stroke-width: 7"/>
      </g>
     </g>
     <g id="text_5">
      <!-- 20 -->
      <g transform="translate(512.117132 609.43375) scale(0.4 -0.4)">
       <defs>
        <path id="DejaVuSans-32" d="M 1228 531 
L 3431 531 
L 3431 0 
L 469 0 
L 469 531 
Q 828 903 1448 1529 
Q 2069 2156 2228 2338 
Q 2531 2678 2651 2914 
Q 2772 3150 2772 3378 
Q 2772 3750 2511 3984 
Q 2250 4219 1831 4219 
Q 1534 4219 1204 4116 
Q 875 4013 500 3803 
L 500 4441 
Q 881 4594 1212 4672 
Q 1544 4750 1819 4750 
Q 2544 4750 2975 4387 
Q 3406 4025 3406 3419 
Q 3406 3131 3298 2873 
Q 3191 2616 2906 2266 
Q 2828 2175 2409 1742 
Q 1991 1309 1228 531 
z
" transform="scale(0.015625)"/>
       </defs>
       <use xlink:href="#DejaVuSans-32"/>
       <use xlink:href="#DejaVuSans-30" x="63.623047"/>
      </g>
     </g>
    </g>
    <g id="xtick_6">
     <g id="line2d_6">
      <g>
       <use xlink:href="#mdd162bd61a" x="625.483915" y="549.04" style="fill: #d3d3d3; stroke: #d3d3d3; stroke-width: 7"/>
      </g>
     </g>
     <g id="text_6">
      <!-- 25 -->
      <g transform="translate(600.033915 609.43375) scale(0.4 -0.4)">
       <use xlink:href="#DejaVuSans-32"/>
       <use xlink:href="#DejaVuSans-35" x="63.623047"/>
      </g>
     </g>
    </g>
    <g id="xtick_7">
     <g id="line2d_7">
      <g>
       <use xlink:href="#mdd162bd61a" x="713.400698" y="549.04" style="fill: #d3d3d3; stroke: #d3d3d3; stroke-width: 7"/>
      </g>
     </g>
     <g id="text_7">
      <!-- 30 -->
      <g transform="translate(687.950698 609.43375) scale(0.4 -0.4)">
       <defs>
        <path id="DejaVuSans-33" d="M 2597 2516 
Q 3050 2419 3304 2112 
Q 3559 1806 3559 1356 
Q 3559 666 3084 287 
Q 2609 -91 1734 -91 
Q 1441 -91 1130 -33 
Q 819 25 488 141 
L 488 750 
Q 750 597 1062 519 
Q 1375 441 1716 441 
Q 2309 441 2620 675 
Q 2931 909 2931 1356 
Q 2931 1769 2642 2001 
Q 2353 2234 1838 2234 
L 1294 2234 
L 1294 2753 
L 1863 2753 
Q 2328 2753 2575 2939 
Q 2822 3125 2822 3475 
Q 2822 3834 2567 4026 
Q 2313 4219 1838 4219 
Q 1578 4219 1281 4162 
Q 984 4106 628 3988 
L 628 4550 
Q 988 4650 1302 4700 
Q 1616 4750 1894 4750 
Q 2613 4750 3031 4423 
Q 3450 4097 3450 3541 
Q 3450 3153 3228 2886 
Q 3006 2619 2597 2516 
z
" transform="scale(0.015625)"/>
       </defs>
       <use xlink:href="#DejaVuSans-33"/>
       <use xlink:href="#DejaVuSans-30" x="63.623047"/>
      </g>
     </g>
    </g>
    <g id="xtick_8">
     <g id="line2d_8">
      <g>
       <use xlink:href="#mdd162bd61a" x="801.317481" y="549.04" style="fill: #d3d3d3; stroke: #d3d3d3; stroke-width: 7"/>
      </g>
     </g>
     <g id="text_8">
      <!-- 35 -->
      <g transform="translate(775.867481 609.43375) scale(0.4 -0.4)">
       <use xlink:href="#DejaVuSans-33"/>
       <use xlink:href="#DejaVuSans-35" x="63.623047"/>
      </g>
     </g>
    </g>
    <g id="xtick_9">
     <g id="line2d_9">
      <g>
       <use xlink:href="#mdd162bd61a" x="889.234264" y="549.04" style="fill: #d3d3d3; stroke: #d3d3d3; stroke-width: 7"/>
      </g>
     </g>
     <g id="text_9">
      <!-- 40 -->
      <g transform="translate(863.784264 609.43375) scale(0.4 -0.4)">
       <defs>
        <path id="DejaVuSans-34" d="M 2419 4116 
L 825 1625 
L 2419 1625 
L 2419 4116 
z
M 2253 4666 
L 3047 4666 
L 3047 1625 
L 3713 1625 
L 3713 1100 
L 3047 1100 
L 3047 0 
L 2419 0 
L 2419 1100 
L 313 1100 
L 313 1709 
L 2253 4666 
z
" transform="scale(0.015625)"/>
       </defs>
       <use xlink:href="#DejaVuSans-34"/>
       <use xlink:href="#DejaVuSans-30" x="63.623047"/>
      </g>
     </g>
    </g>
    <g id="xtick_10">
     <g id="line2d_10">
      <g>
       <use xlink:href="#mdd162bd61a" x="977.151047" y="549.04" style="fill: #d3d3d3; stroke: #d3d3d3; stroke-width: 7"/>
      </g>
     </g>
     <g id="text_10">
      <!-- 45 -->
      <g transform="translate(951.701047 609.43375) scale(0.4 -0.4)">
       <use xlink:href="#DejaVuSans-34"/>
       <use xlink:href="#DejaVuSans-35" x="63.623047"/>
      </g>
     </g>
    </g>
    <g id="xtick_11">
     <g id="line2d_11">
      <g>
       <use xlink:href="#mdd162bd61a" x="1065.06783" y="549.04" style="fill: #d3d3d3; stroke: #d3d3d3; stroke-width: 7"/>
      </g>
     </g>
     <g id="text_11">
      <!-- 50 -->
      <g transform="translate(1039.61783 609.43375) scale(0.4 -0.4)">
       <use xlink:href="#DejaVuSans-35"/>
       <use xlink:href="#DejaVuSans-30" x="63.623047"/>
      </g>
     </g>
    </g>
    <g id="xtick_12">
     <g id="line2d_12">
      <g>
       <use xlink:href="#mdd162bd61a" x="1152.984613" y="549.04" style="fill: #d3d3d3; stroke: #d3d3d3; stroke-width: 7"/>
      </g>
     </g>
     <g id="text_12">
      <!-- 55 -->
      <g transform="translate(1127.534613 609.43375) scale(0.4 -0.4)">
       <use xlink:href="#DejaVuSans-35"/>
       <use xlink:href="#DejaVuSans-35" x="63.623047"/>
      </g>
     </g>
    </g>
    <g id="xtick_13">
     <g id="line2d_13">
      <g>
       <use xlink:href="#mdd162bd61a" x="1240.901396" y="549.04" style="fill: #d3d3d3; stroke: #d3d3d3; stroke-width: 7"/>
      </g>
     </g>
     <g id="text_13">
      <!-- 60 -->
      <g transform="translate(1215.451396 609.43375) scale(0.4 -0.4)">
       <defs>
        <path id="DejaVuSans-36" d="M 2113 2584 
Q 1688 2584 1439 2293 
Q 1191 2003 1191 1497 
Q 1191 994 1439 701 
Q 1688 409 2113 409 
Q 2538 409 2786 701 
Q 3034 994 3034 1497 
Q 3034 2003 2786 2293 
Q 2538 2584 2113 2584 
z
M 3366 4563 
L 3366 3988 
Q 3128 4100 2886 4159 
Q 2644 4219 2406 4219 
Q 1781 4219 1451 3797 
Q 1122 3375 1075 2522 
Q 1259 2794 1537 2939 
Q 1816 3084 2150 3084 
Q 2853 3084 3261 2657 
Q 3669 2231 3669 1497 
Q 3669 778 3244 343 
Q 2819 -91 2113 -91 
Q 1303 -91 875 529 
Q 447 1150 447 2328 
Q 447 3434 972 4092 
Q 1497 4750 2381 4750 
Q 2619 4750 2861 4703 
Q 3103 4656 3366 4563 
z
" transform="scale(0.015625)"/>
       </defs>
       <use xlink:href="#DejaVuSans-36"/>
       <use xlink:href="#DejaVuSans-30" x="63.623047"/>
      </g>
     </g>
    </g>
    <g id="text_14">
     <!-- Time (s) -->
     <g transform="translate(640.169375 668.14625) scale(0.4 -0.4)">
      <defs>
       <path id="DejaVuSans-54" d="M -19 4666 
L 3928 4666 
L 3928 4134 
L 2272 4134 
L 2272 0 
L 1638 0 
L 1638 4134 
L -19 4134 
L -19 4666 
z
" transform="scale(0.015625)"/>
       <path id="DejaVuSans-69" d="M 603 3500 
L 1178 3500 
L 1178 0 
L 603 0 
L 603 3500 
z
M 603 4863 
L 1178 4863 
L 1178 4134 
L 603 4134 
L 603 4863 
z
" transform="scale(0.015625)"/>
       <path id="DejaVuSans-6d" d="M 3328 2828 
Q 3544 3216 3844 3400 
Q 4144 3584 4550 3584 
Q 5097 3584 5394 3201 
Q 5691 2819 5691 2113 
L 5691 0 
L 5113 0 
L 5113 2094 
Q 5113 2597 4934 2840 
Q 4756 3084 4391 3084 
Q 3944 3084 3684 2787 
Q 3425 2491 3425 1978 
L 3425 0 
L 2847 0 
L 2847 2094 
Q 2847 2600 2669 2842 
Q 2491 3084 2119 3084 
Q 1678 3084 1418 2786 
Q 1159 2488 1159 1978 
L 1159 0 
L 581 0 
L 581 3500 
L 1159 3500 
L 1159 2956 
Q 1356 3278 1631 3431 
Q 1906 3584 2284 3584 
Q 2666 3584 2933 3390 
Q 3200 3197 3328 2828 
z
" transform="scale(0.015625)"/>
       <path id="DejaVuSans-65" d="M 3597 1894 
L 3597 1613 
L 953 1613 
Q 991 1019 1311 708 
Q 1631 397 2203 397 
Q 2534 397 2845 478 
Q 3156 559 3463 722 
L 3463 178 
Q 3153 47 2828 -22 
Q 2503 -91 2169 -91 
Q 1331 -91 842 396 
Q 353 884 353 1716 
Q 353 2575 817 3079 
Q 1281 3584 2069 3584 
Q 2775 3584 3186 3129 
Q 3597 2675 3597 1894 
z
M 3022 2063 
Q 3016 2534 2758 2815 
Q 2500 3097 2075 3097 
Q 1594 3097 1305 2825 
Q 1016 2553 972 2059 
L 3022 2063 
z
" transform="scale(0.015625)"/>
       <path id="DejaVuSans-20" transform="scale(0.015625)"/>
       <path id="DejaVuSans-28" d="M 1984 4856 
Q 1566 4138 1362 3434 
Q 1159 2731 1159 2009 
Q 1159 1288 1364 580 
Q 1569 -128 1984 -844 
L 1484 -844 
Q 1016 -109 783 600 
Q 550 1309 550 2009 
Q 550 2706 781 3412 
Q 1013 4119 1484 4856 
L 1984 4856 
z
" transform="scale(0.015625)"/>
       <path id="DejaVuSans-73" d="M 2834 3397 
L 2834 2853 
Q 2591 2978 2328 3040 
Q 2066 3103 1784 3103 
Q 1356 3103 1142 2972 
Q 928 2841 928 2578 
Q 928 2378 1081 2264 
Q 1234 2150 1697 2047 
L 1894 2003 
Q 2506 1872 2764 1633 
Q 3022 1394 3022 966 
Q 3022 478 2636 193 
Q 2250 -91 1575 -91 
Q 1294 -91 989 -36 
Q 684 19 347 128 
L 347 722 
Q 666 556 975 473 
Q 1284 391 1588 391 
Q 1994 391 2212 530 
Q 2431 669 2431 922 
Q 2431 1156 2273 1281 
Q 2116 1406 1581 1522 
L 1381 1569 
Q 847 1681 609 1914 
Q 372 2147 372 2553 
Q 372 3047 722 3315 
Q 1072 3584 1716 3584 
Q 2034 3584 2315 3537 
Q 2597 3491 2834 3397 
z
" transform="scale(0.015625)"/>
       <path id="DejaVuSans-29" d="M 513 4856 
L 1013 4856 
Q 1481 4119 1714 3412 
Q 1947 2706 1947 2009 
Q 1947 1309 1714 600 
Q 1481 -109 1013 -844 
L 513 -844 
Q 928 -128 1133 580 
Q 1338 1288 1338 2009 
Q 1338 2731 1133 3434 
Q 928 4138 513 4856 
z
" transform="scale(0.015625)"/>
      </defs>
      <use xlink:href="#DejaVuSans-54"/>
      <use xlink:href="#DejaVuSans-69" x="57.958984"/>
      <use xlink:href="#DejaVuSans-6d" x="85.742188"/>
      <use xlink:href="#DejaVuSans-65" x="183.154297"/>
      <use xlink:href="#DejaVuSans-20" x="244.677734"/>
      <use xlink:href="#DejaVuSans-28" x="276.464844"/>
      <use xlink:href="#DejaVuSans-73" x="315.478516"/>
      <use xlink:href="#DejaVuSans-29" x="367.578125"/>
     </g>
    </g>
   </g>
   <g id="matplotlib.axis_2">
    <g id="ytick_1">
     <g id="line2d_14">
      <defs>
       <path id="maf318aef9b" d="M 0 0 
L -20 0 
" style="stroke: #d3d3d3; stroke-width: 7"/>
      </defs>
      <g>
       <use xlink:href="#maf318aef9b" x="185.9" y="549.04" style="fill: #d3d3d3; stroke: #d3d3d3; stroke-width: 7"/>
      </g>
     </g>
     <g id="text_15">
      <!-- 24 -->
      <g transform="translate(105 564.236875) scale(0.4 -0.4)">
       <use xlink:href="#DejaVuSans-32"/>
       <use xlink:href="#DejaVuSans-34" x="63.623047"/>
      </g>
     </g>
    </g>
    <g id="ytick_2">
     <g id="line2d_15">
      <g>
       <use xlink:href="#maf318aef9b" x="185.9" y="450.896" style="fill: #d3d3d3; stroke: #d3d3d3; stroke-width: 7"/>
      </g>
     </g>
     <g id="text_16">
      <!-- 26 -->
      <g transform="translate(105 466.092875) scale(0.4 -0.4)">
       <use xlink:href="#DejaVuSans-32"/>
       <use xlink:href="#DejaVuSans-36" x="63.623047"/>
      </g>
     </g>
    </g>
    <g id="ytick_3">
     <g id="line2d_16">
      <g>
       <use xlink:href="#maf318aef9b" x="185.9" y="352.752" style="fill: #d3d3d3; stroke: #d3d3d3; stroke-width: 7"/>
      </g>
     </g>
     <g id="text_17">
      <!-- 28 -->
      <g transform="translate(105 367.948875) scale(0.4 -0.4)">
       <defs>
        <path id="DejaVuSans-38" d="M 2034 2216 
Q 1584 2216 1326 1975 
Q 1069 1734 1069 1313 
Q 1069 891 1326 650 
Q 1584 409 2034 409 
Q 2484 409 2743 651 
Q 3003 894 3003 1313 
Q 3003 1734 2745 1975 
Q 2488 2216 2034 2216 
z
M 1403 2484 
Q 997 2584 770 2862 
Q 544 3141 544 3541 
Q 544 4100 942 4425 
Q 1341 4750 2034 4750 
Q 2731 4750 3128 4425 
Q 3525 4100 3525 3541 
Q 3525 3141 3298 2862 
Q 3072 2584 2669 2484 
Q 3125 2378 3379 2068 
Q 3634 1759 3634 1313 
Q 3634 634 3220 271 
Q 2806 -91 2034 -91 
Q 1263 -91 848 271 
Q 434 634 434 1313 
Q 434 1759 690 2068 
Q 947 2378 1403 2484 
z
M 1172 3481 
Q 1172 3119 1398 2916 
Q 1625 2713 2034 2713 
Q 2441 2713 2670 2916 
Q 2900 3119 2900 3481 
Q 2900 3844 2670 4047 
Q 2441 4250 2034 4250 
Q 1625 4250 1398 4047 
Q 1172 3844 1172 3481 
z
" transform="scale(0.015625)"/>
       </defs>
       <use xlink:href="#DejaVuSans-32"/>
       <use xlink:href="#DejaVuSans-38" x="63.623047"/>
      </g>
     </g>
    </g>
    <g id="ytick_4">
     <g id="line2d_17">
      <g>
       <use xlink:href="#maf318aef9b" x="185.9" y="254.608" style="fill: #d3d3d3; stroke: #d3d3d3; stroke-width: 7"/>
      </g>
     </g>
     <g id="text_18">
      <!-- 30 -->
      <g transform="translate(105 269.804875) scale(0.4 -0.4)">
       <use xlink:href="#DejaVuSans-33"/>
       <use xlink:href="#DejaVuSans-30" x="63.623047"/>
      </g>
     </g>
    </g>
    <g id="ytick_5">
     <g id="line2d_18">
      <g>
       <use xlink:href="#maf318aef9b" x="185.9" y="156.464" style="fill: #d3d3d3; stroke: #d3d3d3; stroke-width: 7"/>
      </g>
     </g>
     <g id="text_19">
      <!-- 32 -->
      <g transform="translate(105 171.660875) scale(0.4 -0.4)">
       <use xlink:href="#DejaVuSans-33"/>
       <use xlink:href="#DejaVuSans-32" x="63.623047"/>
      </g>
     </g>
    </g>
    <g id="ytick_6">
     <g id="line2d_19">
      <g>
       <use xlink:href="#maf318aef9b" x="185.9" y="58.32" style="fill: #d3d3d3; stroke: #d3d3d3; stroke-width: 7"/>
      </g>
     </g>
     <g id="text_20">
      <!-- 34 -->
      <g transform="translate(105 73.516875) scale(0.4 -0.4)">
       <use xlink:href="#DejaVuSans-33"/>
       <use xlink:href="#DejaVuSans-34" x="63.623047"/>
      </g>
     </g>
    </g>
    <g id="text_21">
     <!-- Temperature ($^\circ$C) -->
     <g style="fill: #658dc6" transform="translate(76.6 485.28) rotate(-90) scale(0.4 -0.4)">
      <defs>
       <path id="DejaVuSans-70" d="M 1159 525 
L 1159 -1331 
L 581 -1331 
L 581 3500 
L 1159 3500 
L 1159 2969 
Q 1341 3281 1617 3432 
Q 1894 3584 2278 3584 
Q 2916 3584 3314 3078 
Q 3713 2572 3713 1747 
Q 3713 922 3314 415 
Q 2916 -91 2278 -91 
Q 1894 -91 1617 61 
Q 1341 213 1159 525 
z
M 3116 1747 
Q 3116 2381 2855 2742 
Q 2594 3103 2138 3103 
Q 1681 3103 1420 2742 
Q 1159 2381 1159 1747 
Q 1159 1113 1420 752 
Q 1681 391 2138 391 
Q 2594 391 2855 752 
Q 3116 1113 3116 1747 
z
" transform="scale(0.015625)"/>
       <path id="DejaVuSans-72" d="M 2631 2963 
Q 2534 3019 2420 3045 
Q 2306 3072 2169 3072 
Q 1681 3072 1420 2755 
Q 1159 2438 1159 1844 
L 1159 0 
L 581 0 
L 581 3500 
L 1159 3500 
L 1159 2956 
Q 1341 3275 1631 3429 
Q 1922 3584 2338 3584 
Q 2397 3584 2469 3576 
Q 2541 3569 2628 3553 
L 2631 2963 
z
" transform="scale(0.015625)"/>
       <path id="DejaVuSans-61" d="M 2194 1759 
Q 1497 1759 1228 1600 
Q 959 1441 959 1056 
Q 959 750 1161 570 
Q 1363 391 1709 391 
Q 2188 391 2477 730 
Q 2766 1069 2766 1631 
L 2766 1759 
L 2194 1759 
z
M 3341 1997 
L 3341 0 
L 2766 0 
L 2766 531 
Q 2569 213 2275 61 
Q 1981 -91 1556 -91 
Q 1019 -91 701 211 
Q 384 513 384 1019 
Q 384 1609 779 1909 
Q 1175 2209 1959 2209 
L 2766 2209 
L 2766 2266 
Q 2766 2663 2505 2880 
Q 2244 3097 1772 3097 
Q 1472 3097 1187 3025 
Q 903 2953 641 2809 
L 641 3341 
Q 956 3463 1253 3523 
Q 1550 3584 1831 3584 
Q 2591 3584 2966 3190 
Q 3341 2797 3341 1997 
z
" transform="scale(0.015625)"/>
       <path id="DejaVuSans-74" d="M 1172 4494 
L 1172 3500 
L 2356 3500 
L 2356 3053 
L 1172 3053 
L 1172 1153 
Q 1172 725 1289 603 
Q 1406 481 1766 481 
L 2356 481 
L 2356 0 
L 1766 0 
Q 1100 0 847 248 
Q 594 497 594 1153 
L 594 3053 
L 172 3053 
L 172 3500 
L 594 3500 
L 594 4494 
L 1172 4494 
z
" transform="scale(0.015625)"/>
       <path id="DejaVuSans-75" d="M 544 1381 
L 544 3500 
L 1119 3500 
L 1119 1403 
Q 1119 906 1312 657 
Q 1506 409 1894 409 
Q 2359 409 2629 706 
Q 2900 1003 2900 1516 
L 2900 3500 
L 3475 3500 
L 3475 0 
L 2900 0 
L 2900 538 
Q 2691 219 2414 64 
Q 2138 -91 1772 -91 
Q 1169 -91 856 284 
Q 544 659 544 1381 
z
M 1991 3584 
L 1991 3584 
z
" transform="scale(0.015625)"/>
       <path id="DejaVuSans-2218" d="M 2000 2619 
Q 1750 2619 1578 2445 
Q 1406 2272 1406 2022 
Q 1406 1775 1578 1605 
Q 1750 1435 2000 1435 
Q 2250 1435 2422 1605 
Q 2594 1775 2594 2022 
Q 2594 2269 2420 2444 
Q 2247 2619 2000 2619 
z
M 2000 3022 
Q 2200 3022 2384 2945 
Q 2569 2869 2703 2725 
Q 2847 2585 2919 2406 
Q 2991 2228 2991 2022 
Q 2991 1610 2702 1324 
Q 2413 1038 1994 1038 
Q 1572 1038 1290 1319 
Q 1009 1600 1009 2022 
Q 1009 2441 1296 2731 
Q 1584 3022 2000 3022 
z
" transform="scale(0.015625)"/>
       <path id="DejaVuSans-43" d="M 4122 4306 
L 4122 3641 
Q 3803 3938 3442 4084 
Q 3081 4231 2675 4231 
Q 1875 4231 1450 3742 
Q 1025 3253 1025 2328 
Q 1025 1406 1450 917 
Q 1875 428 2675 428 
Q 3081 428 3442 575 
Q 3803 722 4122 1019 
L 4122 359 
Q 3791 134 3420 21 
Q 3050 -91 2638 -91 
Q 1578 -91 968 557 
Q 359 1206 359 2328 
Q 359 3453 968 4101 
Q 1578 4750 2638 4750 
Q 3056 4750 3426 4639 
Q 3797 4528 4122 4306 
z
" transform="scale(0.015625)"/>
      </defs>
      <use xlink:href="#DejaVuSans-54" transform="translate(0 0.125)"/>
      <use xlink:href="#DejaVuSans-65" transform="translate(61.083984 0.125)"/>
      <use xlink:href="#DejaVuSans-6d" transform="translate(122.607422 0.125)"/>
      <use xlink:href="#DejaVuSans-70" transform="translate(220.019531 0.125)"/>
      <use xlink:href="#DejaVuSans-65" transform="translate(283.496094 0.125)"/>
      <use xlink:href="#DejaVuSans-72" transform="translate(345.019531 0.125)"/>
      <use xlink:href="#DejaVuSans-61" transform="translate(386.132812 0.125)"/>
      <use xlink:href="#DejaVuSans-74" transform="translate(447.412109 0.125)"/>
      <use xlink:href="#DejaVuSans-75" transform="translate(486.621094 0.125)"/>
      <use xlink:href="#DejaVuSans-72" transform="translate(550 0.125)"/>
      <use xlink:href="#DejaVuSans-65" transform="translate(591.113281 0.125)"/>
      <use xlink:href="#DejaVuSans-20" transform="translate(652.636719 0.125)"/>
      <use xlink:href="#DejaVuSans-28" transform="translate(684.423828 0.125)"/>
      <use xlink:href="#DejaVuSans-2218" transform="translate(738.032227 38.40625) scale(0.7)"/>
      <use xlink:href="#DejaVuSans-43" transform="translate(798.222656 0.125)"/>
      <use xlink:href="#DejaVuSans-29" transform="translate(868.046875 0.125)"/>
     </g>
    </g>
   </g>
   <g id="line2d_20">
    <path d="M 185.9 171.1856 
L 189.942151 171.1856 
L 191.963226 170.20416 
L 193.984302 170.69488 
L 196.005377 170.20416 
L 204.089679 172.16704 
L 206.110755 172.16704 
L 210.152906 171.1856 
L 212.173981 171.1856 
L 214.195057 169.71344 
L 216.216132 170.20416 
L 220.258283 170.20416 
L 222.279358 170.69488 
L 224.300434 172.65776 
L 226.321509 172.16704 
L 228.342585 171.1856 
L 230.36366 171.1856 
L 232.384736 170.20416 
L 234.405811 169.71344 
L 240.469038 169.71344 
L 244.511189 170.69488 
L 246.532264 170.69488 
L 248.55334 169.71344 
L 250.574415 167.75056 
L 252.595491 166.76912 
L 256.637642 165.78768 
L 258.658717 165.78768 
L 262.700868 164.80624 
L 264.721943 164.80624 
L 266.743019 160.88048 
L 268.764094 159.40832 
L 274.827321 156.464 
L 276.848396 156.464 
L 278.869472 155.97328 
L 280.890547 156.464 
L 282.911623 156.464 
L 284.932698 156.95472 
L 286.953774 156.464 
L 288.974849 157.93616 
L 290.995925 161.86192 
L 293.017 161.86192 
L 295.038075 164.80624 
L 297.059151 165.29696 
L 299.080226 166.76912 
L 301.101302 167.25984 
L 303.122377 169.22272 
L 305.143453 170.20416 
L 307.164528 167.75056 
L 309.185604 175.60208 
L 311.206679 175.11136 
L 313.227755 173.6392 
L 315.24883 174.62064 
L 317.269906 174.62064 
L 319.290981 173.6392 
L 321.312057 173.14848 
L 323.333132 172.16704 
L 325.354208 171.67632 
L 327.375283 165.29696 
L 329.396358 160.88048 
L 331.417434 171.67632 
L 333.438509 170.20416 
L 335.459585 170.20416 
L 339.501736 171.1856 
L 341.522811 172.65776 
L 343.543887 172.16704 
L 345.564962 172.65776 
L 347.586038 173.6392 
L 351.628189 184.43504 
L 353.649264 217.804 
L 355.67034 239.8864 
L 357.691415 258.04304 
L 359.712491 269.3296 
L 361.733566 277.18112 
L 363.754642 297.79136 
L 365.775717 305.15216 
L 367.796792 316.43872 
L 369.817868 330.6696 
L 371.838943 336.55824 
L 373.860019 340.97472 
L 375.881094 339.01184 
L 377.90217 344.90048 
L 379.923245 366.49216 
L 381.944321 371.39936 
L 383.965396 368.94576 
L 385.986472 391.51888 
L 388.007547 395.44464 
L 390.028623 398.38896 
L 392.049698 409.1848 
L 394.070774 411.6384 
L 396.091849 419.98064 
L 398.112925 419.48992 
L 400.134 421.4528 
L 402.155075 400.84256 
L 404.176151 422.92496 
L 406.197226 426.85072 
L 408.218302 430.28576 
L 410.239377 443.04448 
L 412.260453 432.73936 
L 414.281528 439.60944 
L 416.302604 426.85072 
L 418.323679 439.11872 
L 420.344755 450.40528 
L 422.36583 451.38672 
L 424.386906 456.29392 
L 426.407981 448.93312 
L 428.429057 457.27536 
L 430.450132 450.896 
L 432.471208 465.12688 
L 434.492283 454.33104 
L 436.513358 459.23824 
L 438.534434 450.896 
L 440.555509 450.896 
L 442.576585 434.70224 
L 444.59766 447.46096 
L 446.618736 449.91456 
L 448.639811 458.2568 
L 450.660887 466.10832 
L 452.681962 447.46096 
L 454.703038 467.58048 
L 456.724113 441.0816 
L 458.745189 432.24864 
L 460.766264 471.99696 
L 462.78734 479.84848 
L 464.808415 496.04224 
L 466.829491 459.72896 
L 468.850566 479.35776 
L 470.871642 454.82176 
L 472.892717 469.05264 
L 474.913792 462.18256 
L 476.934868 453.3496 
L 478.955943 450.40528 
L 480.977019 428.32288 
L 482.998094 456.78464 
L 485.01917 458.2568 
L 487.040245 473.95984 
L 489.061321 423.9064 
L 491.082396 415.56416 
L 493.103472 442.06304 
L 495.124547 415.07344 
L 497.145623 460.7104 
L 499.166698 410.65696 
L 501.187774 435.19296 
L 503.208849 421.94352 
L 505.229925 399.86112 
L 507.251 418.9992 
L 509.272075 422.92496 
L 511.293151 404.2776 
L 513.314226 413.11056 
L 515.335302 470.03408 
L 517.356377 436.66512 
L 519.377453 477.8856 
L 521.398528 426.36 
L 523.419604 436.66512 
L 525.440679 412.12912 
L 527.461755 392.50032 
L 529.48283 426.36 
L 531.503906 440.59088 
L 533.524981 404.76832 
L 535.546057 428.32288 
L 537.567132 439.11872 
L 539.588208 420.96208 
L 541.609283 391.51888 
L 543.630358 399.86112 
L 545.651434 396.9168 
L 547.672509 421.4528 
L 549.693585 403.78688 
L 551.71466 406.24048 
L 553.735736 396.9168 
L 555.756811 380.72304 
L 557.777887 400.84256 
L 559.798962 439.11872 
L 561.820038 389.06528 
L 563.841113 365.02 
L 565.862189 370.41792 
L 567.883264 372.87152 
L 569.90434 391.02816 
L 571.925415 400.35184 
L 573.946491 399.86112 
L 575.967566 379.25088 
L 577.988642 354.22416 
L 580.009717 392.0096 
L 582.030792 380.23232 
L 584.051868 397.89824 
L 586.072943 393.48176 
L 588.094019 393.97248 
L 590.115094 366.98288 
L 592.13617 375.32512 
L 594.157245 375.81584 
L 596.178321 347.35408 
L 598.199396 410.65696 
L 600.220472 365.51072 
L 602.241547 356.18704 
L 604.262623 324.29024 
L 606.283698 360.60352 
L 608.304774 386.61168 
L 610.325849 381.70448 
L 612.346925 364.03856 
L 614.368 359.62208 
L 616.389075 384.6488 
L 618.410151 358.14992 
L 620.431226 371.39936 
L 622.452302 364.52928 
L 624.473377 349.31696 
L 626.494453 365.02 
L 628.515528 370.41792 
L 632.557679 403.29616 
L 634.578755 415.56416 
L 636.59983 367.4736 
L 638.620906 352.752 
L 640.641981 364.52928 
L 642.663057 347.8448 
L 644.684132 371.39936 
L 646.705208 398.38896 
L 648.726283 407.22192 
L 650.747358 395.93536 
L 652.768434 399.86112 
L 654.789509 360.60352 
L 656.810585 362.07568 
L 658.83166 383.66736 
L 660.852736 354.22416 
L 662.873811 363.54784 
L 664.894887 343.91904 
L 666.915962 345.3912 
L 668.937038 348.82624 
L 670.958113 362.07568 
L 672.979189 345.88192 
L 675.000264 351.77056 
L 677.02134 333.61392 
L 679.042415 329.68816 
L 681.063491 405.25904 
L 683.084566 337.53968 
L 685.105642 369.9272 
L 687.126717 355.2056 
L 689.147792 355.69632 
L 691.168868 368.94576 
L 693.189943 374.34368 
L 695.211019 402.80544 
L 697.232094 405.25904 
L 699.25317 417.03632 
L 701.274245 393.97248 
L 703.295321 409.1848 
L 705.316396 392.99104 
L 707.337472 381.21376 
L 709.358547 405.74976 
L 711.379623 426.85072 
L 715.421774 388.08384 
L 717.442849 409.1848 
L 719.463925 414.092 
L 721.485 388.57456 
L 723.506075 394.95392 
L 725.527151 386.12096 
L 727.548226 407.22192 
L 729.569302 391.51888 
L 731.590377 411.14768 
L 733.611453 409.67552 
L 735.632528 410.65696 
L 737.653604 387.59312 
L 739.674679 394.95392 
L 741.695755 385.13952 
L 743.71683 357.16848 
L 745.737906 366.98288 
L 747.758981 382.68592 
L 749.780057 380.23232 
L 751.801132 378.26944 
L 753.822208 384.6488 
L 755.843283 389.556 
L 757.864358 387.59312 
L 759.885434 406.24048 
L 761.906509 393.48176 
L 763.927585 408.69408 
L 765.94866 407.71264 
L 767.969736 423.9064 
L 769.990811 424.39712 
L 772.011887 430.28576 
L 774.032962 392.50032 
L 776.054038 395.93536 
L 778.075113 414.58272 
L 780.096189 408.20336 
L 782.117264 428.32288 
L 784.13834 391.02816 
L 786.159415 424.88784 
L 788.180491 390.04672 
L 790.201566 383.17664 
L 792.222642 405.25904 
L 794.243717 436.1744 
L 796.264792 425.86928 
L 798.285868 392.0096 
L 800.306943 406.7312 
L 802.328019 382.68592 
L 804.349094 381.21376 
L 810.412321 444.02592 
L 812.433396 421.94352 
L 814.454472 436.1744 
L 816.475547 398.38896 
L 818.496623 420.47136 
L 820.517698 429.79504 
L 822.538774 419.98064 
L 824.559849 432.24864 
L 826.580925 454.82176 
L 828.602 423.41568 
L 830.623075 426.85072 
L 832.644151 442.06304 
L 834.665226 436.66512 
L 836.686302 398.87968 
L 838.707377 400.35184 
L 840.728453 401.33328 
L 842.749528 394.95392 
L 844.770604 402.80544 
L 846.791679 430.28576 
L 848.812755 438.628 
L 850.83383 411.6384 
L 852.854906 410.16624 
L 854.875981 379.25088 
L 856.897057 389.06528 
L 858.918132 368.45504 
L 860.939208 401.33328 
L 862.960283 379.25088 
L 864.981358 385.13952 
L 867.002434 377.77872 
L 869.023509 391.02816 
L 871.044585 388.08384 
L 873.06566 369.43648 
L 875.086736 383.17664 
L 877.107811 381.70448 
L 879.128887 424.88784 
L 881.149962 426.85072 
L 883.171038 432.73936 
L 885.192113 391.02816 
L 887.213189 378.26944 
L 889.234264 389.06528 
L 891.25534 377.288 
L 893.276415 390.04672 
L 895.297491 407.22192 
L 897.318566 377.288 
L 899.339642 373.36224 
L 901.360717 388.57456 
L 903.381792 381.70448 
L 905.402868 381.21376 
L 907.423943 412.12912 
L 909.445019 414.58272 
L 911.466094 447.95168 
L 913.48717 395.93536 
L 915.508245 397.89824 
L 917.529321 374.34368 
L 919.550396 387.1024 
L 921.571472 412.61984 
L 923.592547 389.556 
L 925.613623 422.92496 
L 927.634698 392.99104 
L 929.655774 426.85072 
L 931.676849 405.74976 
L 933.697925 415.07344 
L 935.719 392.50032 
L 937.740075 376.30656 
L 939.761151 404.2776 
L 941.782226 417.03632 
L 943.803302 454.82176 
L 945.824377 416.5456 
L 947.845453 424.88784 
L 949.866528 401.824 
L 951.887604 399.86112 
L 953.908679 404.76832 
L 955.929755 393.97248 
L 957.95083 426.36 
L 959.971906 414.58272 
L 961.992981 448.93312 
L 964.014057 396.9168 
L 966.035132 405.74976 
L 968.056208 383.17664 
L 970.077283 385.13952 
L 972.098358 386.61168 
L 974.119434 386.61168 
L 976.140509 421.94352 
L 978.161585 421.94352 
L 980.18266 418.9992 
L 982.203736 399.3704 
L 984.224811 392.50032 
L 986.245887 417.52704 
L 988.266962 387.1024 
L 990.288038 400.84256 
L 992.309113 396.42608 
L 994.330189 385.13952 
L 996.351264 383.17664 
L 998.37234 394.4632 
L 1000.393415 379.7416 
L 1002.414491 427.34144 
L 1004.435566 385.13952 
L 1006.456642 440.59088 
L 1008.477717 389.06528 
L 1010.498792 410.65696 
L 1012.519868 449.91456 
L 1014.540943 425.86928 
L 1016.562019 438.13728 
L 1018.583094 394.4632 
L 1020.60417 408.20336 
L 1022.625245 405.25904 
L 1024.646321 401.824 
L 1026.667396 406.7312 
L 1028.688472 383.66736 
L 1030.709547 439.60944 
L 1034.751698 361.09424 
L 1036.772774 361.58496 
L 1038.793849 403.29616 
L 1040.814925 417.03632 
L 1042.836 417.03632 
L 1044.857075 428.32288 
L 1046.878151 421.94352 
L 1048.899226 437.64656 
L 1050.920302 404.2776 
L 1052.941377 418.01776 
L 1054.962453 407.22192 
L 1056.983528 407.22192 
L 1059.004604 420.96208 
L 1061.025679 414.092 
L 1063.046755 423.41568 
L 1065.06783 409.1848 
L 1067.088906 415.07344 
L 1069.109981 403.78688 
L 1071.131057 421.4528 
L 1073.152132 409.67552 
L 1075.173208 417.03632 
L 1077.194283 430.77648 
L 1079.215358 384.6488 
L 1081.236434 428.8136 
L 1083.257509 412.61984 
L 1085.278585 404.76832 
L 1087.29966 420.47136 
L 1089.320736 406.7312 
L 1091.341811 414.58272 
L 1093.362887 399.3704 
L 1095.383962 415.07344 
L 1097.405038 420.47136 
L 1099.426113 408.69408 
L 1103.468264 381.70448 
L 1105.48934 396.42608 
L 1107.510415 392.50032 
L 1109.531491 394.4632 
L 1111.552566 359.62208 
L 1113.573642 404.2776 
L 1115.594717 399.86112 
L 1117.615792 400.35184 
L 1119.636868 419.48992 
L 1121.657943 409.67552 
L 1123.679019 411.14768 
L 1125.700094 387.1024 
L 1127.72117 405.74976 
L 1129.742245 415.07344 
L 1131.763321 398.87968 
L 1133.784396 392.50032 
L 1135.805472 387.1024 
L 1137.826547 392.0096 
L 1139.847623 394.4632 
L 1141.868698 399.3704 
L 1143.889774 400.84256 
L 1145.910849 395.44464 
L 1147.931925 377.77872 
L 1149.953 388.08384 
L 1151.974075 402.80544 
L 1153.995151 402.31472 
L 1156.016226 416.5456 
L 1158.037302 395.44464 
L 1160.058377 405.25904 
L 1162.079453 385.13952 
L 1164.100528 390.53744 
L 1166.121604 394.95392 
L 1168.142679 389.06528 
L 1170.163755 394.95392 
L 1172.18483 383.17664 
L 1174.205906 397.40752 
L 1176.226981 396.42608 
L 1178.248057 385.63024 
L 1180.269132 385.63024 
L 1182.290208 388.08384 
L 1184.311283 387.59312 
L 1186.332358 390.04672 
L 1188.353434 388.57456 
L 1190.374509 352.752 
L 1192.395585 384.15808 
L 1194.41666 385.63024 
L 1196.437736 382.1952 
L 1198.458811 393.97248 
L 1200.479887 375.32512 
L 1202.500962 389.556 
L 1204.522038 387.1024 
L 1206.543113 399.86112 
L 1208.564189 405.74976 
L 1210.585264 407.71264 
L 1212.60634 388.08384 
L 1214.627415 385.63024 
L 1216.648491 385.13952 
L 1218.669566 379.7416 
L 1220.690642 387.59312 
L 1222.711717 393.97248 
L 1226.753868 385.13952 
L 1228.774943 388.57456 
L 1230.796019 391.02816 
L 1232.817094 376.79728 
L 1234.83817 376.79728 
L 1236.859245 368.94576 
L 1238.880321 362.5664 
L 1240.901396 351.27984 
L 1242.922472 347.8448 
L 1244.943547 352.752 
L 1246.964623 351.77056 
L 1248.985698 328.216 
L 1251.006774 324.29024 
L 1253.027849 318.4016 
L 1255.048925 315.45728 
L 1257.07 313.4944 
L 1259.091075 304.17072 
L 1261.112151 300.24496 
L 1263.133226 298.7728 
L 1265.154302 293.37488 
L 1269.196453 291.412 
L 1271.217528 288.9584 
L 1273.238604 287.48624 
L 1277.280755 279.63472 
L 1279.30183 316.92944 
L 1281.322906 314.96656 
L 1283.343981 312.02224 
L 1287.386132 310.05936 
L 1289.407208 306.62432 
L 1291.428283 302.20784 
L 1293.449358 302.20784 
L 1297.491509 300.24496 
L 1299.512585 296.3192 
L 1301.53366 298.7728 
L 1303.554736 298.7728 
L 1309.617962 294.35632 
L 1311.639038 293.37488 
L 1321.744415 290.92128 
L 1323.765491 285.03264 
L 1325.786566 285.52336 
L 1327.807642 284.54192 
L 1329.828717 280.61616 
L 1331.849792 280.61616 
L 1333.870868 277.18112 
L 1335.891943 276.6904 
L 1337.913019 275.70896 
L 1339.934094 275.21824 
L 1341.95517 278.65328 
L 1343.976245 273.74608 
L 1345.997321 272.76464 
L 1348.018396 273.74608 
L 1350.039472 274.2368 
L 1352.060547 273.74608 
L 1354.081623 272.76464 
L 1356.102698 268.83888 
L 1358.123774 269.3296 
L 1360.144849 266.876 
L 1362.165925 260.98736 
L 1366.208075 260.98736 
L 1368.229151 266.38528 
L 1370.250226 260.49664 
L 1372.271302 259.5152 
L 1372.271302 259.5152 
" clip-path="url(#pb2c1666a7e)" style="fill: none; stroke: #0f4c81; stroke-width: 8.4; stroke-linecap: square"/>
   </g>
   <g id="line2d_21">
    <path d="M 185.9 198.1752 
L 187.921075 198.66592 
L 189.942151 198.66592 
L 191.963226 197.68448 
L 193.984302 197.19376 
L 196.005377 175.60208 
L 198.026453 175.60208 
L 200.047528 172.16704 
L 202.068604 172.65776 
L 206.110755 171.67632 
L 208.13183 195.23088 
L 210.152906 171.1856 
L 212.173981 171.1856 
L 214.195057 170.69488 
L 216.216132 171.1856 
L 218.237208 194.74016 
L 220.258283 194.74016 
L 222.279358 188.85152 
L 226.321509 188.85152 
L 228.342585 168.732 
L 230.36366 168.24128 
L 232.384736 168.732 
L 234.405811 168.732 
L 236.426887 167.25984 
L 240.469038 166.2784 
L 242.490113 166.2784 
L 244.511189 166.76912 
L 246.532264 167.75056 
L 248.55334 167.75056 
L 250.574415 192.77728 
L 254.616566 192.77728 
L 256.637642 192.28656 
L 258.658717 192.28656 
L 260.679792 192.77728 
L 262.700868 192.77728 
L 264.721943 165.29696 
L 266.743019 165.29696 
L 268.764094 194.24944 
L 272.806245 194.24944 
L 276.848396 195.23088 
L 278.869472 195.23088 
L 280.890547 196.21232 
L 284.932698 194.24944 
L 286.953774 194.24944 
L 288.974849 187.87008 
L 290.995925 187.87008 
L 293.017 186.39792 
L 295.038075 186.39792 
L 297.059151 192.28656 
L 307.164528 192.28656 
L 309.185604 192.77728 
L 311.206679 192.77728 
L 313.227755 193.268 
L 315.24883 193.268 
L 321.312057 196.21232 
L 323.333132 167.25984 
L 325.354208 179.03712 
L 327.375283 202.59168 
L 329.396358 183.4536 
L 331.417434 179.03712 
L 333.438509 206.02672 
L 335.459585 205.536 
L 337.48066 177.07424 
L 339.501736 177.56496 
L 341.522811 176.0928 
L 343.543887 178.5464 
L 345.564962 178.5464 
L 347.586038 187.87008 
L 349.607113 235.46992 
L 351.628189 267.85744 
L 355.67034 304.17072 
L 357.691415 327.23456 
L 359.712491 338.52112 
L 361.733566 346.86336 
L 363.754642 358.64064 
L 371.838943 386.12096 
L 373.860019 402.80544 
L 375.881094 407.22192 
L 377.90217 409.1848 
L 379.923245 381.21376 
L 381.944321 386.12096 
L 383.965396 389.06528 
L 385.986472 424.88784 
L 388.007547 395.93536 
L 390.028623 421.94352 
L 392.049698 395.44464 
L 394.070774 403.78688 
L 396.091849 411.6384 
L 398.112925 422.92496 
L 400.134 447.46096 
L 402.155075 421.4528 
L 404.176151 450.40528 
L 406.197226 410.16624 
L 408.218302 423.41568 
L 410.239377 427.83216 
L 412.260453 433.23008 
L 414.281528 445.9888 
L 416.302604 423.9064 
L 418.323679 441.0816 
L 420.344755 413.11056 
L 422.36583 427.83216 
L 424.386906 432.24864 
L 426.407981 441.0816 
L 428.429057 453.3496 
L 430.450132 422.43424 
L 432.471208 439.60944 
L 434.492283 410.16624 
L 436.513358 425.37856 
L 438.534434 443.5352 
L 440.555509 457.27536 
L 442.576585 469.54336 
L 444.59766 439.11872 
L 446.618736 467.58048 
L 448.639811 420.47136 
L 450.660887 453.3496 
L 452.681962 432.73936 
L 454.703038 455.31248 
L 456.724113 446.97024 
L 458.745189 454.33104 
L 460.766264 426.36 
L 462.78734 428.32288 
L 464.808415 444.02592 
L 466.829491 455.8032 
L 468.850566 459.72896 
L 470.871642 427.83216 
L 472.892717 430.28576 
L 474.913792 403.78688 
L 476.934868 417.52704 
L 478.955943 436.66512 
L 480.977019 412.61984 
L 482.998094 469.54336 
L 485.01917 414.58272 
L 487.040245 457.76608 
L 489.061321 430.28576 
L 491.082396 435.19296 
L 493.103472 428.32288 
L 495.124547 424.39712 
L 497.145623 437.15584 
L 499.166698 426.85072 
L 501.187774 445.00736 
L 503.208849 404.76832 
L 505.229925 414.58272 
L 507.251 390.04672 
L 509.272075 400.84256 
L 511.293151 416.05488 
L 513.314226 416.5456 
L 515.335302 413.60128 
L 517.356377 401.33328 
L 519.377453 397.89824 
L 521.398528 400.35184 
L 525.440679 413.11056 
L 527.461755 397.89824 
L 529.48283 407.71264 
L 531.503906 381.70448 
L 533.524981 392.99104 
L 535.546057 395.44464 
L 537.567132 397.40752 
L 539.588208 393.48176 
L 541.609283 382.68592 
L 543.630358 380.23232 
L 545.651434 384.15808 
L 547.672509 374.8344 
L 549.693585 402.31472 
L 551.71466 395.44464 
L 553.735736 404.2776 
L 555.756811 407.22192 
L 557.777887 373.36224 
L 559.798962 377.288 
L 563.841113 366.49216 
L 565.862189 376.79728 
L 567.883264 379.7416 
L 569.90434 389.556 
L 571.925415 362.5664 
L 573.946491 366.49216 
L 575.967566 368.94576 
L 577.988642 357.6592 
L 580.009717 357.16848 
L 582.030792 378.26944 
L 584.051868 368.45504 
L 586.072943 368.94576 
L 588.094019 366.49216 
L 590.115094 366.98288 
L 592.13617 403.78688 
L 594.157245 383.17664 
L 596.178321 395.93536 
L 598.199396 379.7416 
L 600.220472 392.99104 
L 602.241547 394.4632 
L 604.262623 392.99104 
L 606.283698 400.84256 
L 608.304774 359.13136 
L 610.325849 366.98288 
L 612.346925 351.77056 
L 614.368 361.58496 
L 616.389075 372.87152 
L 618.410151 372.87152 
L 620.431226 399.3704 
L 622.452302 380.23232 
L 624.473377 394.95392 
L 626.494453 379.25088 
L 628.515528 373.36224 
L 630.536604 376.30656 
L 632.557679 381.21376 
L 634.578755 374.8344 
L 636.59983 388.08384 
L 638.620906 386.12096 
L 640.641981 374.8344 
L 642.663057 362.07568 
L 644.684132 367.96432 
L 646.705208 363.05712 
L 648.726283 373.36224 
L 650.747358 350.78912 
L 652.768434 375.81584 
L 654.789509 379.25088 
L 656.810585 360.60352 
L 658.83166 356.67776 
L 660.852736 362.07568 
L 662.873811 365.51072 
L 664.894887 361.09424 
L 666.915962 373.85296 
L 668.937038 376.30656 
L 670.958113 370.41792 
L 672.979189 370.90864 
L 675.000264 379.7416 
L 677.02134 359.62208 
L 679.042415 359.13136 
L 681.063491 391.02816 
L 683.084566 362.07568 
L 685.105642 382.1952 
L 687.126717 373.36224 
L 689.147792 401.33328 
L 691.168868 371.39936 
L 693.189943 369.9272 
L 695.211019 374.34368 
L 697.232094 372.3808 
L 699.25317 384.15808 
L 701.274245 385.13952 
L 703.295321 421.4528 
L 705.316396 421.94352 
L 707.337472 408.20336 
L 709.358547 425.86928 
L 711.379623 388.57456 
L 713.400698 403.78688 
L 715.421774 398.38896 
L 717.442849 425.86928 
L 719.463925 394.95392 
L 721.485 414.58272 
L 723.506075 383.66736 
L 725.527151 392.99104 
L 727.548226 395.93536 
L 729.569302 410.16624 
L 731.590377 406.24048 
L 733.611453 386.12096 
L 735.632528 402.80544 
L 737.653604 377.77872 
L 739.674679 394.4632 
L 741.695755 403.29616 
L 743.71683 396.42608 
L 745.737906 396.9168 
L 747.758981 375.81584 
L 749.780057 395.44464 
L 751.801132 389.06528 
L 753.822208 416.5456 
L 755.843283 405.74976 
L 757.864358 395.93536 
L 759.885434 404.76832 
L 761.906509 396.42608 
L 763.927585 402.31472 
L 765.94866 427.83216 
L 767.969736 411.14768 
L 769.990811 400.84256 
L 772.011887 410.65696 
L 774.032962 402.31472 
L 776.054038 398.38896 
L 778.075113 405.74976 
L 780.096189 421.94352 
L 782.117264 428.8136 
L 784.13834 426.85072 
L 786.159415 447.95168 
L 788.180491 395.93536 
L 790.201566 386.61168 
L 792.222642 409.1848 
L 794.243717 395.93536 
L 796.264792 406.7312 
L 798.285868 391.02816 
L 800.306943 401.33328 
L 802.328019 410.16624 
L 804.349094 398.38896 
L 806.37017 402.31472 
L 808.391245 395.44464 
L 810.412321 398.87968 
L 812.433396 397.89824 
L 814.454472 415.56416 
L 816.475547 411.6384 
L 818.496623 436.1744 
L 820.517698 395.93536 
L 822.538774 408.69408 
L 824.559849 427.34144 
L 826.580925 414.092 
L 828.602 436.1744 
L 830.623075 400.84256 
L 832.644151 403.78688 
L 834.665226 401.33328 
L 836.686302 397.40752 
L 838.707377 401.33328 
L 840.728453 387.1024 
L 842.749528 401.824 
L 844.770604 414.092 
L 846.791679 445.00736 
L 848.812755 437.64656 
L 850.83383 446.97024 
L 852.854906 415.07344 
L 854.875981 425.37856 
L 856.897057 402.31472 
L 858.918132 408.69408 
L 860.939208 408.20336 
L 862.960283 436.1744 
L 864.981358 452.36816 
L 867.002434 417.52704 
L 869.023509 433.7208 
L 871.044585 427.83216 
L 873.06566 418.01776 
L 875.086736 427.83216 
L 877.107811 408.20336 
L 879.128887 422.43424 
L 881.149962 408.20336 
L 883.171038 418.01776 
L 885.192113 403.78688 
L 887.213189 425.86928 
L 889.234264 416.05488 
L 891.25534 401.33328 
L 893.276415 414.092 
L 895.297491 408.20336 
L 897.318566 406.24048 
L 899.339642 410.65696 
L 901.360717 419.48992 
L 903.381792 432.24864 
L 905.402868 395.44464 
L 907.423943 404.76832 
L 909.445019 389.06528 
L 911.466094 397.89824 
L 913.48717 392.50032 
L 915.508245 396.9168 
L 919.550396 412.61984 
L 921.571472 395.44464 
L 923.592547 393.97248 
L 925.613623 390.53744 
L 927.634698 402.80544 
L 929.655774 408.69408 
L 933.697925 408.69408 
L 935.719 391.02816 
L 937.740075 392.0096 
L 939.761151 378.26944 
L 941.782226 392.50032 
L 943.803302 392.99104 
L 945.824377 396.42608 
L 947.845453 406.24048 
L 949.866528 412.61984 
L 951.887604 403.29616 
L 953.908679 386.12096 
L 955.929755 392.50032 
L 957.95083 391.02816 
L 959.971906 390.53744 
L 961.992981 383.66736 
L 964.014057 384.15808 
L 966.035132 416.5456 
L 968.056208 393.97248 
L 970.077283 421.94352 
L 972.098358 392.99104 
L 974.119434 397.89824 
L 976.140509 389.556 
L 978.161585 398.38896 
L 980.18266 385.13952 
L 982.203736 392.99104 
L 984.224811 386.12096 
L 986.245887 387.59312 
L 988.266962 388.57456 
L 990.288038 391.51888 
L 992.309113 394.95392 
L 994.330189 404.2776 
L 996.351264 394.95392 
L 998.37234 419.98064 
L 1000.393415 391.51888 
L 1002.414491 392.50032 
L 1004.435566 390.04672 
L 1006.456642 378.26944 
L 1008.477717 380.72304 
L 1010.498792 398.38896 
L 1012.519868 385.13952 
L 1014.540943 375.32512 
L 1016.562019 382.1952 
L 1018.583094 380.23232 
L 1020.60417 387.1024 
L 1022.625245 387.59312 
L 1024.646321 390.04672 
L 1026.667396 366.49216 
L 1028.688472 382.1952 
L 1030.709547 378.76016 
L 1032.730623 373.85296 
L 1034.751698 372.3808 
L 1036.772774 373.36224 
L 1038.793849 375.32512 
L 1040.814925 386.12096 
L 1042.836 391.02816 
L 1044.857075 402.80544 
L 1046.878151 390.53744 
L 1048.899226 407.22192 
L 1050.920302 371.89008 
L 1052.941377 370.41792 
L 1054.962453 387.59312 
L 1056.983528 387.1024 
L 1059.004604 400.35184 
L 1061.025679 387.59312 
L 1063.046755 394.95392 
L 1065.06783 384.15808 
L 1069.109981 384.15808 
L 1071.131057 385.63024 
L 1073.152132 385.13952 
L 1075.173208 380.72304 
L 1077.194283 385.63024 
L 1079.215358 384.15808 
L 1081.236434 380.23232 
L 1083.257509 382.1952 
L 1085.278585 366.00144 
L 1087.29966 366.00144 
L 1089.320736 360.60352 
L 1091.341811 356.67776 
L 1093.362887 356.18704 
L 1095.383962 353.24272 
L 1097.405038 352.26128 
L 1099.426113 347.8448 
L 1103.468264 345.88192 
L 1105.48934 343.42832 
L 1107.510415 342.9376 
L 1109.531491 339.50256 
L 1111.552566 335.08608 
L 1113.573642 335.08608 
L 1115.594717 333.61392 
L 1117.615792 333.1232 
L 1119.636868 335.5768 
L 1121.657943 334.10464 
L 1123.679019 331.65104 
L 1125.700094 329.68816 
L 1129.742245 327.72528 
L 1131.763321 325.7624 
L 1133.784396 325.27168 
L 1137.826547 325.27168 
L 1139.847623 324.78096 
L 1141.868698 320.36448 
L 1143.889774 319.87376 
L 1145.910849 318.4016 
L 1147.931925 318.4016 
L 1151.974075 316.43872 
L 1153.995151 315.948 
L 1156.016226 315.948 
L 1158.037302 312.51296 
L 1160.058377 313.98512 
L 1162.079453 311.0408 
L 1164.100528 312.51296 
L 1168.142679 311.53152 
L 1170.163755 310.05936 
L 1172.18483 310.55008 
L 1174.205906 307.11504 
L 1174.205906 307.11504 
" clip-path="url(#pb2c1666a7e)" style="fill: none; stroke: #0f4c81; stroke-width: 8.4; stroke-linecap: square"/>
   </g>
   <g id="line2d_22">
    <path d="M 185.9 229.09056 
L 187.921075 228.59984 
L 189.942151 229.58128 
L 193.984302 229.58128 
L 196.005377 230.072 
L 200.047528 230.072 
L 204.089679 231.05344 
L 206.110755 231.05344 
L 208.13183 232.5256 
L 210.152906 232.03488 
L 212.173981 232.5256 
L 216.216132 232.5256 
L 218.237208 233.01632 
L 220.258283 232.5256 
L 222.279358 232.5256 
L 224.300434 233.01632 
L 232.384736 233.01632 
L 234.405811 232.03488 
L 236.426887 231.54416 
L 238.447962 228.59984 
L 240.469038 228.10912 
L 242.490113 228.10912 
L 244.511189 231.05344 
L 246.532264 230.56272 
L 248.55334 229.58128 
L 250.574415 230.072 
L 256.637642 230.072 
L 258.658717 229.09056 
L 260.679792 229.58128 
L 262.700868 229.09056 
L 276.848396 229.09056 
L 280.890547 228.10912 
L 282.911623 227.12768 
L 284.932698 227.6184 
L 288.974849 227.6184 
L 290.995925 227.12768 
L 293.017 227.12768 
L 295.038075 225.65552 
L 299.080226 225.65552 
L 301.101302 224.18336 
L 305.143453 224.18336 
L 307.164528 224.67408 
L 309.185604 224.67408 
L 311.206679 225.1648 
L 313.227755 225.1648 
L 315.24883 225.65552 
L 317.269906 227.12768 
L 319.290981 227.6184 
L 321.312057 229.09056 
L 323.333132 230.072 
L 325.354208 230.56272 
L 329.396358 230.56272 
L 331.417434 231.54416 
L 333.438509 232.03488 
L 335.459585 232.03488 
L 337.48066 233.50704 
L 339.501736 232.5256 
L 341.522811 233.50704 
L 343.543887 233.99776 
L 345.564962 238.41424 
L 347.586038 282.08832 
L 349.607113 322.81808 
L 351.628189 343.91904 
L 353.649264 360.1128 
L 355.67034 389.06528 
L 357.691415 406.7312 
L 359.712491 410.16624 
L 361.733566 415.07344 
L 363.754642 368.94576 
L 365.775717 397.40752 
L 367.796792 398.38896 
L 369.817868 416.5456 
L 371.838943 397.89824 
L 373.860019 424.39712 
L 375.881094 403.29616 
L 377.90217 406.24048 
L 379.923245 412.12912 
L 381.944321 420.96208 
L 383.965396 431.75792 
L 385.986472 430.28576 
L 388.007547 448.4424 
L 390.028623 410.65696 
L 392.049698 439.11872 
L 394.070774 393.97248 
L 396.091849 403.78688 
L 398.112925 424.39712 
L 400.134 425.86928 
L 402.155075 442.06304 
L 404.176151 410.65696 
L 406.197226 422.43424 
L 408.218302 401.824 
L 410.239377 402.80544 
L 412.260453 413.11056 
L 414.281528 435.68368 
L 416.302604 436.66512 
L 418.323679 420.96208 
L 420.344755 436.1744 
L 422.36583 405.25904 
L 424.386906 427.34144 
L 426.407981 438.13728 
L 428.429057 424.88784 
L 430.450132 434.21152 
L 432.471208 427.34144 
L 434.492283 432.73936 
L 436.513358 441.0816 
L 438.534434 467.08976 
L 440.555509 434.70224 
L 442.576585 440.59088 
L 444.59766 432.24864 
L 446.618736 431.75792 
L 448.639811 442.55376 
L 450.660887 422.92496 
L 452.681962 446.47952 
L 454.703038 408.69408 
L 456.724113 424.39712 
L 458.745189 397.40752 
L 460.766264 413.11056 
L 462.78734 407.71264 
L 464.808415 430.28576 
L 466.829491 403.29616 
L 468.850566 412.12912 
L 470.871642 416.5456 
L 472.892717 418.50848 
L 474.913792 421.4528 
L 476.934868 409.67552 
L 478.955943 390.04672 
L 480.977019 401.33328 
L 482.998094 400.35184 
L 485.01917 424.88784 
L 487.040245 408.69408 
L 489.061321 434.21152 
L 491.082396 411.14768 
L 493.103472 424.39712 
L 495.124547 439.60944 
L 497.145623 416.5456 
L 499.166698 422.92496 
L 501.187774 415.07344 
L 503.208849 411.14768 
L 505.229925 408.69408 
L 507.251 413.11056 
L 509.272075 396.42608 
L 511.293151 392.0096 
L 513.314226 392.99104 
L 515.335302 392.0096 
L 517.356377 412.61984 
L 519.377453 405.74976 
L 521.398528 404.76832 
L 523.419604 385.63024 
L 525.440679 386.61168 
L 527.461755 404.2776 
L 529.48283 403.29616 
L 531.503906 406.24048 
L 533.524981 397.40752 
L 535.546057 399.86112 
L 537.567132 394.4632 
L 539.588208 396.9168 
L 541.609283 396.9168 
L 543.630358 395.93536 
L 545.651434 397.40752 
L 547.672509 389.06528 
L 549.693585 389.06528 
L 551.71466 376.79728 
L 553.735736 383.66736 
L 555.756811 384.6488 
L 557.777887 383.66736 
L 559.798962 374.8344 
L 563.841113 375.81584 
L 565.862189 375.81584 
L 567.883264 377.288 
L 569.90434 375.32512 
L 571.925415 381.21376 
L 573.946491 378.26944 
L 575.967566 373.85296 
L 577.988642 373.85296 
L 580.009717 373.36224 
L 582.030792 375.32512 
L 584.051868 374.8344 
L 586.072943 373.36224 
L 588.094019 369.43648 
L 590.115094 371.39936 
L 592.13617 369.9272 
L 594.157245 389.556 
L 596.178321 368.94576 
L 598.199396 367.96432 
L 600.220472 376.79728 
L 602.241547 379.25088 
L 604.262623 376.79728 
L 606.283698 371.89008 
L 608.304774 371.39936 
L 610.325849 375.81584 
L 612.346925 375.32512 
L 614.368 377.77872 
L 616.389075 375.81584 
L 618.410151 376.30656 
L 620.431226 373.85296 
L 622.452302 374.8344 
L 624.473377 370.90864 
L 626.494453 372.3808 
L 628.515528 375.32512 
L 630.536604 373.36224 
L 632.557679 383.66736 
L 634.578755 380.72304 
L 636.59983 381.21376 
L 638.620906 379.25088 
L 640.641981 374.34368 
L 642.663057 382.68592 
L 644.684132 383.66736 
L 646.705208 390.53744 
L 648.726283 395.93536 
L 650.747358 396.9168 
L 652.768434 391.51888 
L 654.789509 397.89824 
L 656.810585 385.63024 
L 658.83166 380.72304 
L 660.852736 378.26944 
L 662.873811 378.76016 
L 664.894887 404.76832 
L 666.915962 392.0096 
L 668.937038 396.42608 
L 670.958113 384.6488 
L 672.979189 384.6488 
L 675.000264 380.72304 
L 677.02134 377.77872 
L 679.042415 379.7416 
L 681.063491 379.25088 
L 683.084566 379.7416 
L 685.105642 374.8344 
L 687.126717 375.32512 
L 689.147792 375.32512 
L 691.168868 374.8344 
L 693.189943 371.89008 
L 695.211019 372.3808 
L 697.232094 376.79728 
L 699.25317 376.30656 
L 701.274245 376.30656 
L 703.295321 368.94576 
L 705.316396 382.68592 
L 707.337472 377.77872 
L 709.358547 377.288 
L 711.379623 375.32512 
L 713.400698 377.77872 
L 715.421774 412.61984 
L 717.442849 404.76832 
L 719.463925 395.44464 
L 721.485 380.72304 
L 723.506075 394.4632 
L 725.527151 385.63024 
L 727.548226 385.13952 
L 729.569302 378.26944 
L 731.590377 394.4632 
L 733.611453 397.40752 
L 735.632528 387.1024 
L 737.653604 388.57456 
L 739.674679 384.15808 
L 741.695755 387.59312 
L 743.71683 372.87152 
L 745.737906 371.39936 
L 747.758981 386.12096 
L 749.780057 385.63024 
L 751.801132 389.06528 
L 753.822208 396.42608 
L 755.843283 407.22192 
L 757.864358 400.35184 
L 759.885434 399.86112 
L 761.906509 417.03632 
L 763.927585 404.2776 
L 765.94866 423.9064 
L 767.969736 418.9992 
L 769.990811 441.0816 
L 772.011887 450.896 
L 774.032962 434.21152 
L 776.054038 435.68368 
L 778.075113 424.88784 
L 780.096189 428.32288 
L 782.117264 420.47136 
L 784.13834 424.88784 
L 786.159415 419.48992 
L 788.180491 418.01776 
L 790.201566 405.25904 
L 792.222642 398.87968 
L 794.243717 403.78688 
L 796.264792 389.06528 
L 798.285868 405.74976 
L 800.306943 406.24048 
L 802.328019 395.44464 
L 804.349094 396.42608 
L 806.37017 399.86112 
L 810.412321 398.87968 
L 812.433396 399.3704 
L 814.454472 392.99104 
L 816.475547 402.80544 
L 818.496623 398.87968 
L 820.517698 405.74976 
L 822.538774 407.71264 
L 824.559849 408.20336 
L 826.580925 409.67552 
L 828.602 414.58272 
L 830.623075 415.07344 
L 832.644151 416.5456 
L 834.665226 414.58272 
L 836.686302 414.092 
L 838.707377 405.74976 
L 840.728453 400.35184 
L 842.749528 400.35184 
L 844.770604 388.08384 
L 846.791679 390.04672 
L 848.812755 401.824 
L 850.83383 400.84256 
L 852.854906 401.824 
L 854.875981 400.35184 
L 856.897057 400.84256 
L 858.918132 396.42608 
L 860.939208 408.20336 
L 862.960283 416.05488 
L 864.981358 414.58272 
L 867.002434 415.07344 
L 869.023509 410.65696 
L 871.044585 412.12912 
L 873.06566 414.092 
L 875.086736 427.83216 
L 877.107811 428.8136 
L 879.128887 440.10016 
L 881.149962 449.42384 
L 883.171038 451.38672 
L 885.192113 442.06304 
L 887.213189 414.092 
L 889.234264 399.3704 
L 891.25534 399.86112 
L 893.276415 398.87968 
L 895.297491 382.1952 
L 897.318566 393.97248 
L 899.339642 395.93536 
L 901.360717 396.9168 
L 903.381792 402.80544 
L 905.402868 379.25088 
L 907.423943 380.23232 
L 909.445019 371.39936 
L 911.466094 371.89008 
L 913.48717 367.96432 
L 915.508245 374.34368 
L 917.529321 368.45504 
L 919.550396 386.61168 
L 921.571472 395.93536 
L 923.592547 431.2672 
L 925.613623 409.67552 
L 927.634698 394.95392 
L 929.655774 395.44464 
L 931.676849 373.36224 
L 933.697925 374.8344 
L 935.719 373.36224 
L 937.740075 380.23232 
L 939.761151 374.34368 
L 941.782226 371.39936 
L 943.803302 386.61168 
L 945.824377 393.48176 
L 947.845453 392.99104 
L 949.866528 372.3808 
L 951.887604 375.32512 
L 953.908679 382.68592 
L 955.929755 392.99104 
L 957.95083 385.13952 
L 959.971906 373.85296 
L 961.992981 398.38896 
L 964.014057 399.86112 
L 966.035132 398.38896 
L 968.056208 396.42608 
L 970.077283 393.48176 
L 972.098358 404.2776 
L 974.119434 405.74976 
L 976.140509 424.88784 
L 978.161585 416.05488 
L 980.18266 426.85072 
L 982.203736 408.69408 
L 984.224811 400.35184 
L 986.245887 403.29616 
L 988.266962 433.23008 
L 990.288038 419.98064 
L 992.309113 418.50848 
L 994.330189 445.49808 
L 996.351264 422.92496 
L 998.37234 419.48992 
L 1000.393415 387.59312 
L 1002.414491 391.02816 
L 1004.435566 388.57456 
L 1006.456642 389.06528 
L 1008.477717 386.12096 
L 1010.498792 385.63024 
L 1012.519868 397.40752 
L 1014.540943 397.40752 
L 1016.562019 396.9168 
L 1018.583094 388.57456 
L 1020.60417 390.53744 
L 1022.625245 398.87968 
L 1024.646321 395.44464 
L 1026.667396 397.89824 
L 1028.688472 396.42608 
L 1030.709547 398.38896 
L 1032.730623 397.89824 
L 1034.751698 398.38896 
L 1036.772774 395.44464 
L 1040.814925 396.42608 
L 1042.836 399.3704 
L 1044.857075 430.77648 
L 1046.878151 432.24864 
L 1048.899226 453.3496 
L 1050.920302 435.68368 
L 1054.962453 418.01776 
L 1056.983528 401.33328 
L 1059.004604 402.80544 
L 1061.025679 400.35184 
L 1063.046755 401.33328 
L 1065.06783 392.50032 
L 1067.088906 406.24048 
L 1069.109981 405.74976 
L 1071.131057 420.47136 
L 1073.152132 411.14768 
L 1075.173208 410.16624 
L 1077.194283 421.94352 
L 1079.215358 407.71264 
L 1081.236434 409.67552 
L 1083.257509 405.74976 
L 1085.278585 400.84256 
L 1087.29966 408.20336 
L 1089.320736 413.60128 
L 1091.341811 437.15584 
L 1093.362887 432.73936 
L 1095.383962 434.70224 
L 1097.405038 424.88784 
L 1099.426113 425.37856 
L 1101.447189 412.12912 
L 1103.468264 449.42384 
L 1105.48934 430.28576 
L 1107.510415 438.13728 
L 1109.531491 437.64656 
L 1111.552566 418.9992 
L 1113.573642 414.092 
L 1115.594717 406.24048 
L 1117.615792 407.71264 
L 1119.636868 406.7312 
L 1121.657943 409.67552 
L 1123.679019 413.11056 
L 1125.700094 414.092 
L 1127.72117 413.11056 
L 1129.742245 412.61984 
L 1131.763321 411.6384 
L 1133.784396 399.86112 
L 1135.805472 399.3704 
L 1137.826547 397.89824 
L 1139.847623 394.95392 
L 1141.868698 394.4632 
L 1143.889774 387.1024 
L 1145.910849 384.15808 
L 1147.931925 380.72304 
L 1149.953 376.30656 
L 1151.974075 369.9272 
L 1153.995151 367.4736 
L 1156.016226 367.4736 
L 1158.037302 366.00144 
L 1160.058377 362.5664 
L 1162.079453 362.07568 
L 1164.100528 362.5664 
L 1166.121604 361.58496 
L 1168.142679 352.752 
L 1170.163755 349.80768 
L 1172.18483 351.77056 
L 1174.205906 352.26128 
L 1176.226981 348.33552 
L 1178.248057 341.46544 
L 1180.269132 340.97472 
L 1182.290208 342.9376 
L 1184.311283 342.44688 
L 1186.332358 342.44688 
L 1188.353434 339.99328 
L 1190.374509 339.50256 
L 1192.395585 338.52112 
L 1196.437736 338.52112 
L 1198.458811 339.01184 
L 1200.479887 338.0304 
L 1202.500962 335.5768 
L 1204.522038 335.5768 
L 1206.543113 336.06752 
L 1212.60634 336.06752 
L 1214.627415 329.19744 
L 1216.648491 329.19744 
L 1218.669566 330.6696 
L 1220.690642 329.68816 
L 1222.711717 329.19744 
L 1224.732792 324.78096 
L 1226.753868 325.27168 
L 1228.774943 322.32736 
L 1232.817094 322.32736 
L 1234.83817 323.79952 
L 1236.859245 314.96656 
L 1238.880321 313.98512 
L 1240.901396 313.98512 
L 1242.922472 321.83664 
L 1244.943547 320.8552 
L 1246.964623 319.38304 
L 1248.985698 319.87376 
L 1251.006774 318.89232 
L 1253.027849 311.53152 
L 1257.07 311.53152 
L 1259.091075 312.51296 
L 1269.196453 310.05936 
L 1273.238604 310.05936 
L 1275.259679 309.56864 
L 1277.280755 310.05936 
L 1279.30183 310.05936 
L 1281.322906 308.09648 
L 1283.343981 303.68 
L 1285.365057 306.1336 
L 1287.386132 305.15216 
L 1289.407208 305.64288 
L 1291.428283 304.66144 
L 1299.512585 304.66144 
L 1299.512585 304.66144 
" clip-path="url(#pb2c1666a7e)" style="fill: none; stroke: #0f4c81; stroke-width: 8.4; stroke-linecap: square"/>
   </g>
   <g id="line2d_23">
    <path d="M 185.9 133.40016 
L 187.921075 133.89088 
L 189.942151 134.87232 
L 191.963226 135.36304 
L 196.005377 135.36304 
L 198.026453 132.90944 
L 200.047528 132.90944 
L 204.089679 133.89088 
L 220.258283 133.89088 
L 222.279358 135.85376 
L 224.300434 135.85376 
L 226.321509 133.40016 
L 228.342585 132.90944 
L 230.36366 132.90944 
L 236.426887 131.43728 
L 238.447962 131.43728 
L 240.469038 132.41872 
L 244.511189 132.41872 
L 246.532264 131.928 
L 248.55334 132.41872 
L 250.574415 131.928 
L 252.595491 132.90944 
L 254.616566 132.90944 
L 256.637642 132.41872 
L 258.658717 129.4744 
L 260.679792 128.98368 
L 262.700868 129.4744 
L 264.721943 129.4744 
L 266.743019 132.41872 
L 274.827321 132.41872 
L 276.848396 130.94656 
L 280.890547 130.94656 
L 282.911623 132.41872 
L 284.932698 131.928 
L 286.953774 130.45584 
L 288.974849 130.94656 
L 290.995925 130.45584 
L 295.038075 130.45584 
L 305.143453 132.90944 
L 307.164528 134.3816 
L 309.185604 135.36304 
L 311.206679 135.85376 
L 313.227755 135.85376 
L 315.24883 134.87232 
L 317.269906 137.32592 
L 323.333132 138.79808 
L 325.354208 139.77952 
L 329.396358 140.76096 
L 331.417434 147.14032 
L 333.438509 147.63104 
L 335.459585 147.63104 
L 337.48066 148.12176 
L 339.501736 108.37344 
L 341.522811 108.37344 
L 343.543887 107.88272 
L 345.564962 108.37344 
L 347.586038 106.41056 
L 349.607113 150.57536 
L 351.628189 142.23312 
L 353.649264 212.8968 
L 357.691415 275.70896 
L 359.712491 296.3192 
L 365.775717 338.0304 
L 367.796792 342.44688 
L 369.817868 347.35408 
L 371.838943 370.41792 
L 373.860019 375.81584 
L 375.881094 379.7416 
L 377.90217 381.21376 
L 379.923245 391.02816 
L 381.944321 403.29616 
L 383.965396 412.12912 
L 385.986472 411.14768 
L 388.007547 370.41792 
L 390.028623 387.1024 
L 392.049698 387.1024 
L 394.070774 382.68592 
L 396.091849 409.1848 
L 398.112925 409.1848 
L 400.134 413.11056 
L 402.155075 380.23232 
L 404.176151 384.6488 
L 406.197226 385.63024 
L 408.218302 385.63024 
L 410.239377 389.06528 
L 412.260453 402.80544 
L 414.281528 417.52704 
L 416.302604 426.85072 
L 418.323679 406.7312 
L 420.344755 378.76016 
L 422.36583 401.824 
L 424.386906 400.35184 
L 426.407981 415.07344 
L 428.429057 438.13728 
L 430.450132 404.76832 
L 432.471208 429.30432 
L 434.492283 396.42608 
L 436.513358 422.92496 
L 438.534434 437.15584 
L 440.555509 437.64656 
L 442.576585 441.0816 
L 444.59766 413.11056 
L 446.618736 430.77648 
L 448.639811 430.28576 
L 450.660887 457.76608 
L 452.681962 455.31248 
L 454.703038 453.84032 
L 456.724113 445.49808 
L 458.745189 421.4528 
L 460.766264 442.06304 
L 462.78734 447.46096 
L 464.808415 465.6176 
L 466.829491 441.57232 
L 468.850566 453.3496 
L 470.871642 424.88784 
L 472.892717 432.73936 
L 474.913792 451.38672 
L 476.934868 419.48992 
L 478.955943 421.94352 
L 480.977019 416.5456 
L 482.998094 437.15584 
L 485.01917 422.43424 
L 487.040245 436.1744 
L 489.061321 404.76832 
L 491.082396 431.2672 
L 493.103472 446.47952 
L 495.124547 432.24864 
L 497.145623 448.4424 
L 499.166698 437.64656 
L 501.187774 445.00736 
L 503.208849 405.74976 
L 505.229925 415.56416 
L 507.251 406.7312 
L 509.272075 405.74976 
L 511.293151 409.1848 
L 513.314226 409.1848 
L 515.335302 408.20336 
L 517.356377 403.78688 
L 519.377453 423.9064 
L 521.398528 425.37856 
L 523.419604 433.23008 
L 525.440679 446.47952 
L 527.461755 413.11056 
L 529.48283 416.05488 
L 531.503906 388.57456 
L 533.524981 394.95392 
L 535.546057 390.53744 
L 537.567132 390.04672 
L 539.588208 388.57456 
L 541.609283 389.556 
L 543.630358 392.50032 
L 545.651434 401.824 
L 547.672509 423.9064 
L 549.693585 423.41568 
L 551.71466 429.79504 
L 553.735736 396.9168 
L 555.756811 406.24048 
L 557.777887 401.33328 
L 559.798962 386.12096 
L 561.820038 387.59312 
L 563.841113 386.61168 
L 567.883264 392.50032 
L 571.925415 426.36 
L 573.946491 420.96208 
L 575.967566 432.73936 
L 577.988642 414.58272 
L 580.009717 413.60128 
L 582.030792 394.95392 
L 584.051868 408.69408 
L 586.072943 408.69408 
L 588.094019 413.11056 
L 590.115094 428.32288 
L 592.13617 419.48992 
L 594.157245 423.41568 
L 596.178321 401.33328 
L 598.199396 399.3704 
L 600.220472 403.29616 
L 602.241547 439.11872 
L 604.262623 409.67552 
L 606.283698 403.78688 
L 608.304774 419.48992 
L 610.325849 403.78688 
L 612.346925 414.58272 
L 614.368 396.9168 
L 616.389075 398.87968 
L 618.410151 408.20336 
L 620.431226 428.8136 
L 622.452302 423.41568 
L 624.473377 397.40752 
L 626.494453 394.95392 
L 628.515528 378.26944 
L 630.536604 378.76016 
L 632.557679 375.32512 
L 634.578755 382.1952 
L 636.59983 379.7416 
L 638.620906 378.26944 
L 640.641981 378.26944 
L 642.663057 389.06528 
L 644.684132 414.58272 
L 646.705208 411.14768 
L 648.726283 423.9064 
L 650.747358 396.9168 
L 652.768434 405.25904 
L 654.789509 392.99104 
L 656.810585 386.12096 
L 658.83166 385.63024 
L 660.852736 411.14768 
L 662.873811 441.57232 
L 664.894887 420.96208 
L 666.915962 438.13728 
L 668.937038 411.6384 
L 670.958113 442.55376 
L 672.979189 403.29616 
L 675.000264 395.44464 
L 677.02134 393.48176 
L 679.042415 407.22192 
L 681.063491 396.42608 
L 683.084566 402.31472 
L 685.105642 381.70448 
L 687.126717 385.63024 
L 689.147792 385.63024 
L 691.168868 387.1024 
L 693.189943 384.6488 
L 695.211019 404.2776 
L 697.232094 412.12912 
L 699.25317 408.20336 
L 701.274245 381.21376 
L 703.295321 380.23232 
L 705.316396 380.72304 
L 707.337472 377.288 
L 709.358547 372.3808 
L 711.379623 387.59312 
L 713.400698 381.21376 
L 715.421774 380.23232 
L 717.442849 387.1024 
L 719.463925 390.04672 
L 721.485 391.51888 
L 723.506075 390.04672 
L 725.527151 391.51888 
L 727.548226 395.44464 
L 729.569302 404.76832 
L 731.590377 409.1848 
L 733.611453 400.35184 
L 735.632528 433.23008 
L 737.653604 402.80544 
L 739.674679 406.7312 
L 741.695755 424.39712 
L 743.71683 414.092 
L 745.737906 425.37856 
L 747.758981 394.95392 
L 749.780057 399.3704 
L 751.801132 390.04672 
L 753.822208 397.89824 
L 755.843283 392.50032 
L 757.864358 392.99104 
L 759.885434 392.50032 
L 761.906509 393.97248 
L 765.94866 421.94352 
L 767.969736 411.6384 
L 769.990811 386.61168 
L 772.011887 382.68592 
L 774.032962 379.25088 
L 776.054038 377.77872 
L 778.075113 378.76016 
L 780.096189 379.25088 
L 782.117264 396.42608 
L 784.13834 392.50032 
L 786.159415 407.71264 
L 788.180491 386.12096 
L 790.201566 388.57456 
L 792.222642 415.07344 
L 794.243717 403.29616 
L 796.264792 418.50848 
L 798.285868 398.38896 
L 800.306943 397.40752 
L 802.328019 395.93536 
L 804.349094 383.17664 
L 806.37017 388.08384 
L 808.391245 412.61984 
L 810.412321 391.02816 
L 812.433396 410.65696 
L 814.454472 445.00736 
L 816.475547 427.34144 
L 818.496623 406.24048 
L 820.517698 396.42608 
L 822.538774 391.51888 
L 824.559849 397.40752 
L 826.580925 395.93536 
L 828.602 395.93536 
L 830.623075 395.44464 
L 832.644151 392.99104 
L 834.665226 387.1024 
L 836.686302 417.03632 
L 838.707377 421.4528 
L 840.728453 411.14768 
L 842.749528 417.03632 
L 844.770604 410.16624 
L 846.791679 407.22192 
L 848.812755 403.29616 
L 850.83383 399.86112 
L 852.854906 400.35184 
L 854.875981 399.3704 
L 856.897057 400.84256 
L 858.918132 400.84256 
L 860.939208 399.86112 
L 862.960283 397.40752 
L 864.981358 394.4632 
L 867.002434 388.57456 
L 869.023509 386.12096 
L 871.044585 389.06528 
L 873.06566 392.50032 
L 875.086736 404.2776 
L 877.107811 418.50848 
L 881.149962 395.44464 
L 883.171038 399.3704 
L 885.192113 399.3704 
L 887.213189 388.08384 
L 889.234264 388.57456 
L 891.25534 388.08384 
L 893.276415 396.42608 
L 895.297491 395.93536 
L 897.318566 410.16624 
L 899.339642 400.35184 
L 901.360717 399.86112 
L 903.381792 381.21376 
L 905.402868 380.23232 
L 907.423943 398.38896 
L 909.445019 394.4632 
L 911.466094 387.1024 
L 913.48717 386.12096 
L 915.508245 386.12096 
L 919.550396 391.02816 
L 921.571472 412.12912 
L 923.592547 424.88784 
L 925.613623 415.56416 
L 927.634698 398.38896 
L 929.655774 400.84256 
L 931.676849 397.89824 
L 933.697925 398.87968 
L 935.719 389.556 
L 937.740075 392.0096 
L 939.761151 393.97248 
L 941.782226 393.97248 
L 943.803302 395.44464 
L 945.824377 396.42608 
L 947.845453 420.96208 
L 949.866528 418.9992 
L 951.887604 424.39712 
L 953.908679 401.33328 
L 955.929755 398.87968 
L 957.95083 392.99104 
L 959.971906 391.02816 
L 961.992981 402.31472 
L 964.014057 396.42608 
L 966.035132 402.31472 
L 968.056208 398.38896 
L 970.077283 394.95392 
L 972.098358 388.57456 
L 974.119434 388.57456 
L 976.140509 414.092 
L 978.161585 398.87968 
L 980.18266 404.2776 
L 982.203736 386.61168 
L 984.224811 387.59312 
L 986.245887 388.08384 
L 988.266962 385.13952 
L 990.288038 386.61168 
L 992.309113 386.12096 
L 994.330189 386.12096 
L 996.351264 398.87968 
L 998.37234 398.38896 
L 1000.393415 394.95392 
L 1002.414491 388.57456 
L 1004.435566 388.08384 
L 1006.456642 388.08384 
L 1008.477717 389.06528 
L 1010.498792 383.17664 
L 1012.519868 383.17664 
L 1014.540943 385.63024 
L 1016.562019 392.50032 
L 1018.583094 383.17664 
L 1020.60417 385.13952 
L 1022.625245 390.04672 
L 1024.646321 392.0096 
L 1026.667396 397.89824 
L 1028.688472 399.86112 
L 1030.709547 422.43424 
L 1032.730623 407.22192 
L 1034.751698 407.71264 
L 1036.772774 407.22192 
L 1038.793849 389.556 
L 1040.814925 391.51888 
L 1042.836 382.68592 
L 1044.857075 382.1952 
L 1046.878151 380.72304 
L 1048.899226 385.63024 
L 1050.920302 379.25088 
L 1052.941377 384.15808 
L 1054.962453 390.53744 
L 1056.983528 391.02816 
L 1059.004604 388.08384 
L 1061.025679 376.79728 
L 1063.046755 373.85296 
L 1065.06783 366.98288 
L 1067.088906 366.00144 
L 1069.109981 364.52928 
L 1071.131057 345.88192 
L 1073.152132 347.8448 
L 1075.173208 344.40976 
L 1077.194283 339.01184 
L 1079.215358 332.63248 
L 1081.236434 329.68816 
L 1083.257509 328.70672 
L 1087.29966 319.87376 
L 1089.320736 318.4016 
L 1091.341811 316.43872 
L 1093.362887 316.43872 
L 1095.383962 313.4944 
L 1097.405038 311.0408 
L 1099.426113 310.05936 
L 1101.447189 307.60576 
L 1103.468264 306.1336 
L 1105.48934 300.24496 
L 1107.510415 302.69856 
L 1109.531491 301.2264 
L 1111.552566 295.82848 
L 1113.573642 296.80992 
L 1119.636868 296.80992 
L 1121.657943 289.93984 
L 1123.679019 291.90272 
L 1125.700094 286.5048 
L 1129.742245 285.52336 
L 1131.763321 287.97696 
L 1133.784396 286.5048 
L 1135.805472 286.5048 
L 1137.826547 286.99552 
L 1141.868698 286.01408 
L 1143.889774 286.01408 
L 1147.931925 283.06976 
L 1149.953 278.65328 
L 1151.974075 277.67184 
L 1153.995151 277.18112 
L 1156.016226 276.19968 
L 1158.037302 278.16256 
L 1160.058377 277.67184 
L 1162.079453 277.67184 
L 1164.100528 276.6904 
L 1166.121604 276.19968 
L 1168.142679 273.25536 
L 1170.163755 272.76464 
L 1172.18483 271.29248 
L 1174.205906 267.85744 
L 1176.226981 268.34816 
L 1180.269132 268.34816 
L 1182.290208 270.80176 
L 1184.311283 268.34816 
L 1186.332358 270.31104 
L 1188.353434 271.29248 
L 1190.374509 271.29248 
L 1192.395585 268.34816 
L 1194.41666 268.34816 
L 1198.458811 265.40384 
L 1200.479887 263.44096 
L 1202.500962 264.4224 
L 1204.522038 264.4224 
L 1206.543113 262.45952 
L 1208.564189 261.9688 
L 1218.669566 261.9688 
L 1220.690642 258.53376 
L 1222.711717 258.53376 
L 1224.732792 259.02448 
L 1226.753868 256.08016 
L 1228.774943 255.58944 
L 1230.796019 248.22864 
L 1234.83817 248.22864 
L 1236.859245 247.73792 
L 1238.880321 249.21008 
L 1240.901396 251.66368 
L 1242.922472 251.66368 
L 1244.943547 247.2472 
L 1246.964623 246.75648 
L 1251.006774 246.75648 
L 1253.027849 247.2472 
L 1255.048925 247.2472 
L 1255.048925 247.2472 
" clip-path="url(#pb2c1666a7e)" style="fill: none; stroke: #0f4c81; stroke-width: 8.4; stroke-linecap: square"/>
   </g>
   <g id="line2d_24">
    <path d="M 185.9 401.824 
L 1257.07 401.824 
" clip-path="url(#pb2c1666a7e)" style="fill: none; stroke-dasharray: 18.5,8; stroke-dashoffset: 0; stroke: #b75e41; stroke-width: 5"/>
   </g>
   <g id="patch_2">
    <path d="M 185.9 549.04 
L 185.9 58.32 
" style="fill: none; stroke: #d3d3d3; stroke-width: 7; stroke-linejoin: miter; stroke-linecap: square"/>
   </g>
   <g id="patch_3">
    <path d="M 185.9 549.04 
L 1257.07 549.04 
" style="fill: none; stroke: #d3d3d3; stroke-width: 7; stroke-linejoin: miter; stroke-linecap: square"/>
   </g>
  </g>
  <g id="axes_2">
   <g id="matplotlib.axis_3">
    <g id="ytick_7">
     <g id="line2d_25">
      <defs>
       <path id="ma6dba19f6f" d="M 0 0 
L 20 0 
" style="stroke: #d3d3d3; stroke-width: 7"/>
      </defs>
      <g>
       <use xlink:href="#ma6dba19f6f" x="1257.07" y="549.04" style="fill: #d3d3d3; stroke: #d3d3d3; stroke-width: 7"/>
      </g>
     </g>
     <g id="text_22">
      <!-- 0 -->
      <g transform="translate(1287.07 564.236875) scale(0.4 -0.4)">
       <use xlink:href="#DejaVuSans-30"/>
      </g>
     </g>
    </g>
    <g id="ytick_8">
     <g id="line2d_26">
      <g>
       <use xlink:href="#ma6dba19f6f" x="1257.07" y="426.36" style="fill: #d3d3d3; stroke: #d3d3d3; stroke-width: 7"/>
      </g>
     </g>
     <g id="text_23">
      <!-- 5 -->
      <g transform="translate(1287.07 441.556875) scale(0.4 -0.4)">
       <use xlink:href="#DejaVuSans-35"/>
      </g>
     </g>
    </g>
    <g id="ytick_9">
     <g id="line2d_27">
      <g>
       <use xlink:href="#ma6dba19f6f" x="1257.07" y="303.68" style="fill: #d3d3d3; stroke: #d3d3d3; stroke-width: 7"/>
      </g>
     </g>
     <g id="text_24">
      <!-- 10 -->
      <g transform="translate(1287.07 318.876875) scale(0.4 -0.4)">
       <use xlink:href="#DejaVuSans-31"/>
       <use xlink:href="#DejaVuSans-30" x="63.623047"/>
      </g>
     </g>
    </g>
    <g id="ytick_10">
     <g id="line2d_28">
      <g>
       <use xlink:href="#ma6dba19f6f" x="1257.07" y="181" style="fill: #d3d3d3; stroke: #d3d3d3; stroke-width: 7"/>
      </g>
     </g>
     <g id="text_25">
      <!-- 15 -->
      <g transform="translate(1287.07 196.196875) scale(0.4 -0.4)">
       <use xlink:href="#DejaVuSans-31"/>
       <use xlink:href="#DejaVuSans-35" x="63.623047"/>
      </g>
     </g>
    </g>
    <g id="ytick_11">
     <g id="line2d_29">
      <g>
       <use xlink:href="#ma6dba19f6f" x="1257.07" y="58.32" style="fill: #d3d3d3; stroke: #d3d3d3; stroke-width: 7"/>
      </g>
     </g>
     <g id="text_26">
      <!-- 20 -->
      <g transform="translate(1287.07 73.516875) scale(0.4 -0.4)">
       <use xlink:href="#DejaVuSans-32"/>
       <use xlink:href="#DejaVuSans-30" x="63.623047"/>
      </g>
     </g>
    </g>
    <g id="text_27">
     <!-- Distance nozzle - skin (cm) -->
     <g transform="translate(1388.36375 573.855) rotate(-90) scale(0.4 -0.4)">
      <defs>
       <path id="DejaVuSans-44" d="M 1259 4147 
L 1259 519 
L 2022 519 
Q 2988 519 3436 956 
Q 3884 1394 3884 2338 
Q 3884 3275 3436 3711 
Q 2988 4147 2022 4147 
L 1259 4147 
z
M 628 4666 
L 1925 4666 
Q 3281 4666 3915 4102 
Q 4550 3538 4550 2338 
Q 4550 1131 3912 565 
Q 3275 0 1925 0 
L 628 0 
L 628 4666 
z
" transform="scale(0.015625)"/>
       <path id="DejaVuSans-6e" d="M 3513 2113 
L 3513 0 
L 2938 0 
L 2938 2094 
Q 2938 2591 2744 2837 
Q 2550 3084 2163 3084 
Q 1697 3084 1428 2787 
Q 1159 2491 1159 1978 
L 1159 0 
L 581 0 
L 581 3500 
L 1159 3500 
L 1159 2956 
Q 1366 3272 1645 3428 
Q 1925 3584 2291 3584 
Q 2894 3584 3203 3211 
Q 3513 2838 3513 2113 
z
" transform="scale(0.015625)"/>
       <path id="DejaVuSans-63" d="M 3122 3366 
L 3122 2828 
Q 2878 2963 2633 3030 
Q 2388 3097 2138 3097 
Q 1578 3097 1268 2742 
Q 959 2388 959 1747 
Q 959 1106 1268 751 
Q 1578 397 2138 397 
Q 2388 397 2633 464 
Q 2878 531 3122 666 
L 3122 134 
Q 2881 22 2623 -34 
Q 2366 -91 2075 -91 
Q 1284 -91 818 406 
Q 353 903 353 1747 
Q 353 2603 823 3093 
Q 1294 3584 2113 3584 
Q 2378 3584 2631 3529 
Q 2884 3475 3122 3366 
z
" transform="scale(0.015625)"/>
       <path id="DejaVuSans-6f" d="M 1959 3097 
Q 1497 3097 1228 2736 
Q 959 2375 959 1747 
Q 959 1119 1226 758 
Q 1494 397 1959 397 
Q 2419 397 2687 759 
Q 2956 1122 2956 1747 
Q 2956 2369 2687 2733 
Q 2419 3097 1959 3097 
z
M 1959 3584 
Q 2709 3584 3137 3096 
Q 3566 2609 3566 1747 
Q 3566 888 3137 398 
Q 2709 -91 1959 -91 
Q 1206 -91 779 398 
Q 353 888 353 1747 
Q 353 2609 779 3096 
Q 1206 3584 1959 3584 
z
" transform="scale(0.015625)"/>
       <path id="DejaVuSans-7a" d="M 353 3500 
L 3084 3500 
L 3084 2975 
L 922 459 
L 3084 459 
L 3084 0 
L 275 0 
L 275 525 
L 2438 3041 
L 353 3041 
L 353 3500 
z
" transform="scale(0.015625)"/>
       <path id="DejaVuSans-6c" d="M 603 4863 
L 1178 4863 
L 1178 0 
L 603 0 
L 603 4863 
z
" transform="scale(0.015625)"/>
       <path id="DejaVuSans-2d" d="M 313 2009 
L 1997 2009 
L 1997 1497 
L 313 1497 
L 313 2009 
z
" transform="scale(0.015625)"/>
       <path id="DejaVuSans-6b" d="M 581 4863 
L 1159 4863 
L 1159 1991 
L 2875 3500 
L 3609 3500 
L 1753 1863 
L 3688 0 
L 2938 0 
L 1159 1709 
L 1159 0 
L 581 0 
L 581 4863 
z
" transform="scale(0.015625)"/>
      </defs>
      <use xlink:href="#DejaVuSans-44"/>
      <use xlink:href="#DejaVuSans-69" x="77.001953"/>
      <use xlink:href="#DejaVuSans-73" x="104.785156"/>
      <use xlink:href="#DejaVuSans-74" x="156.884766"/>
      <use xlink:href="#DejaVuSans-61" x="196.09375"/>
      <use xlink:href="#DejaVuSans-6e" x="257.373047"/>
      <use xlink:href="#DejaVuSans-63" x="320.751953"/>
      <use xlink:href="#DejaVuSans-65" x="375.732422"/>
      <use xlink:href="#DejaVuSans-20" x="437.255859"/>
      <use xlink:href="#DejaVuSans-6e" x="469.042969"/>
      <use xlink:href="#DejaVuSans-6f" x="532.421875"/>
      <use xlink:href="#DejaVuSans-7a" x="593.603516"/>
      <use xlink:href="#DejaVuSans-7a" x="646.09375"/>
      <use xlink:href="#DejaVuSans-6c" x="698.583984"/>
      <use xlink:href="#DejaVuSans-65" x="726.367188"/>
      <use xlink:href="#DejaVuSans-20" x="787.890625"/>
      <use xlink:href="#DejaVuSans-2d" x="819.677734"/>
      <use xlink:href="#DejaVuSans-20" x="855.761719"/>
      <use xlink:href="#DejaVuSans-73" x="887.548828"/>
      <use xlink:href="#DejaVuSans-6b" x="939.648438"/>
      <use xlink:href="#DejaVuSans-69" x="997.558594"/>
      <use xlink:href="#DejaVuSans-6e" x="1025.341797"/>
      <use xlink:href="#DejaVuSans-20" x="1088.720703"/>
      <use xlink:href="#DejaVuSans-28" x="1120.507812"/>
      <use xlink:href="#DejaVuSans-63" x="1159.521484"/>
      <use xlink:href="#DejaVuSans-6d" x="1214.501953"/>
      <use xlink:href="#DejaVuSans-29" x="1311.914062"/>
     </g>
    </g>
   </g>
   <g id="line2d_30">
    <path d="M 185.9 374.987999 
L 379.923245 374.987999 
L 381.944321 375.38968 
L 383.965396 375.38968 
L 385.986472 373.445787 
L 388.007547 372.397764 
L 390.028623 372.397764 
L 392.049698 379.88364 
L 394.070774 379.88364 
L 396.091849 378.973163 
L 398.112925 378.973163 
L 400.134 376.743224 
L 402.155075 375.978813 
L 404.176151 375.978813 
L 406.197226 381.851878 
L 408.218302 381.991858 
L 410.239377 382.61629 
L 412.260453 382.584642 
L 414.281528 379.736357 
L 416.302604 379.736357 
L 418.323679 376.888073 
L 420.344755 377.679263 
L 422.36583 377.679263 
L 424.386906 382.902335 
L 426.407981 382.902335 
L 428.429057 381.076512 
L 430.450132 381.076512 
L 432.471208 376.379277 
L 434.492283 376.127313 
L 436.513358 376.127313 
L 438.534434 381.447763 
L 440.555509 381.447763 
L 442.576585 376.509519 
L 444.59766 376.509519 
L 446.618736 374.65083 
L 448.639811 374.421994 
L 450.660887 373.393447 
L 452.681962 366.959245 
L 454.703038 366.959245 
L 456.724113 365.242971 
L 458.745189 365.242971 
L 460.766264 364.36049 
L 462.78734 364.36049 
L 464.808415 363.014249 
L 466.829491 363.014249 
L 468.850566 358.365703 
L 470.871642 357.318897 
L 472.892717 357.318897 
L 474.913792 360.645547 
L 476.934868 360.645547 
L 478.955943 356.203928 
L 480.977019 356.203928 
L 482.998094 357.799697 
L 485.01917 354.855253 
L 487.040245 354.855253 
L 489.061321 356.079772 
L 491.082396 356.079772 
L 493.103472 357.24343 
L 495.124547 357.24343 
L 497.145623 351.569988 
L 499.166698 351.569988 
L 501.187774 349.320573 
L 503.208849 347.652988 
L 505.229925 347.652988 
L 507.251 353.216881 
L 509.272075 353.216881 
L 511.293151 352.577842 
L 513.314226 352.577842 
L 515.335302 351.713619 
L 517.356377 351.186565 
L 519.377453 351.186565 
L 521.398528 351.419053 
L 523.419604 351.419053 
L 525.440679 348.246989 
L 527.461755 348.246989 
L 529.48283 344.293473 
L 531.503906 344.293473 
L 535.546057 347.738193 
L 537.567132 347.738193 
L 539.588208 348.42592 
L 541.609283 348.42592 
L 543.630358 348.682752 
L 545.651434 348.682752 
L 547.672509 348.278637 
L 549.693585 348.278637 
L 551.71466 344.259391 
L 553.735736 342.265592 
L 555.756811 342.265592 
L 557.777887 347.078462 
L 559.798962 347.078462 
L 561.820038 346.2751 
L 563.841113 346.2751 
L 565.862189 347.59943 
L 567.883264 347.467971 
L 569.90434 347.467971 
L 571.925415 346.944568 
L 573.946491 346.944568 
L 575.967566 342.61615 
L 577.988642 342.61615 
L 580.009717 340.458026 
L 582.030792 340.458026 
L 584.051868 341.266258 
L 586.072943 340.992384 
L 588.094019 340.992384 
L 590.115094 340.28153 
L 592.13617 340.28153 
L 594.157245 337.087556 
L 596.178321 337.087556 
L 598.199396 336.23794 
L 600.220472 337.977341 
L 602.241547 337.977341 
L 604.262623 336.833158 
L 606.283698 336.833158 
L 608.304774 335.490569 
L 610.325849 335.490569 
L 612.346925 333.468774 
L 614.368 333.468774 
L 616.389075 332.927113 
L 618.410151 333.926447 
L 620.431226 333.926447 
L 622.452302 331.741545 
L 624.473377 331.741545 
L 626.494453 329.075843 
L 628.515528 329.075843 
L 630.536604 331.342299 
L 632.557679 333.135257 
L 634.578755 333.135257 
L 636.59983 334.162587 
L 642.663057 334.116333 
L 644.684132 334.657994 
L 646.705208 334.657994 
L 648.726283 330.495116 
L 650.747358 328.363772 
L 652.768434 328.363772 
L 654.789509 332.24669 
L 656.810585 332.24669 
L 658.83166 332.445096 
L 660.852736 332.445096 
L 662.873811 333.2302 
L 664.894887 333.2302 
L 666.915962 326.306677 
L 668.937038 324.749859 
L 670.958113 324.749859 
L 672.979189 328.002259 
L 675.000264 328.169017 
L 677.02134 329.515258 
L 679.042415 329.616287 
L 681.063491 326.032804 
L 683.084566 327.397303 
L 685.105642 327.397303 
L 687.126717 325.957337 
L 689.147792 325.957337 
L 691.168868 327.534848 
L 693.189943 327.459381 
L 695.211019 328.116677 
L 697.232094 328.116677 
L 699.25317 324.493026 
L 701.274245 323.41579 
L 703.295321 323.41579 
L 705.316396 327.87932 
L 707.337472 328.232313 
L 709.358547 329.375278 
L 711.379623 329.375278 
L 713.400698 330.776293 
L 715.421774 330.312534 
L 717.442849 330.826199 
L 719.463925 329.516475 
L 723.506075 328.713113 
L 725.527151 328.948035 
L 727.548226 328.597477 
L 729.569302 328.597477 
L 731.590377 327.802635 
L 733.611453 325.884304 
L 735.632528 325.884304 
L 737.653604 326.881203 
L 739.674679 326.881203 
L 741.695755 326.199563 
L 743.71683 326.199563 
L 745.737906 323.008023 
L 747.758981 323.008023 
L 749.780057 321.592401 
L 751.801132 323.535078 
L 753.822208 323.535078 
L 755.843283 324.968958 
L 759.885434 324.441903 
L 761.906509 324.427297 
L 763.927585 323.979361 
L 765.94866 321.099429 
L 767.969736 321.099429 
L 769.990811 317.77643 
L 772.011887 317.77643 
L 774.032962 321.032482 
L 776.054038 321.032482 
L 778.075113 322.101198 
L 780.096189 322.101198 
L 782.117264 322.591735 
L 784.13834 320.820687 
L 786.159415 320.820687 
L 788.180491 321.370868 
L 790.201566 321.370868 
L 792.222642 322.123107 
L 794.243717 322.123107 
L 796.264792 318.663781 
L 798.285868 317.326061 
L 800.306943 317.326061 
L 802.328019 320.162173 
L 804.349094 320.190169 
L 806.37017 323.115138 
L 808.391245 323.115138 
L 810.412321 322.471231 
L 812.433396 322.21805 
L 814.454472 317.43561 
L 816.475547 310.099451 
L 818.496623 310.099451 
L 820.517698 311.476122 
L 822.538774 311.476122 
L 824.559849 313.996976 
L 826.580925 313.996976 
L 828.602 313.663459 
L 832.644151 313.512524 
L 834.665226 313.943418 
L 836.686302 313.943418 
L 838.707377 315.003613 
L 840.728453 315.003613 
L 842.749528 310.820043 
L 844.770604 310.820043 
L 846.791679 310.227259 
L 848.812755 310.473137 
L 850.83383 310.604596 
L 852.854906 310.960023 
L 854.875981 310.960023 
L 856.897057 310.516956 
L 858.918132 310.516956 
L 860.939208 310.089714 
L 862.960283 310.089714 
L 864.981358 309.830447 
L 867.002434 310.167616 
L 869.023509 310.167616 
L 871.044585 311.158429 
L 873.06566 311.183991 
L 875.086736 310.418362 
L 877.107811 310.418362 
L 879.128887 308.100783 
L 881.149962 307.232909 
L 883.171038 307.232909 
L 885.192113 308.890756 
L 887.213189 308.890756 
L 889.234264 308.232243 
L 891.25534 308.232243 
L 893.276415 309.285134 
L 895.297491 309.285134 
L 897.318566 308.397784 
L 899.339642 306.473366 
L 901.360717 306.473366 
L 903.381792 307.657717 
L 905.402868 307.657717 
L 907.423943 309.729418 
L 909.445019 309.729418 
L 911.466094 307.9535 
L 913.48717 309.125679 
L 915.508245 309.125679 
L 917.529321 309.490844 
L 919.550396 309.404421 
L 921.571472 308.939445 
L 923.592547 308.939445 
L 925.613623 304.923851 
L 927.634698 304.923851 
L 929.655774 303.738283 
L 931.676849 304.713272 
L 933.697925 304.713272 
L 935.719 304.94576 
L 937.740075 304.94576 
L 939.761151 305.779553 
L 941.782226 305.779553 
L 943.803302 305.324315 
L 945.824377 305.324315 
L 947.845453 305.07722 
L 949.866528 301.739615 
L 951.887604 301.739615 
L 953.908679 301.034847 
L 955.929755 301.034847 
L 957.95083 302.247193 
L 959.971906 302.247193 
L 961.992981 302.94831 
L 964.014057 301.738397 
L 966.035132 301.738397 
L 968.056208 302.488202 
L 970.077283 302.488202 
L 972.098358 302.080435 
L 974.119434 302.080435 
L 976.140509 303.087072 
L 978.161585 303.087072 
L 980.18266 300.009951 
L 982.203736 300.425022 
L 984.224811 300.425022 
L 986.245887 303.368249 
L 988.266962 303.397462 
L 990.288038 304.279944 
L 992.309113 304.276292 
L 996.351264 304.873945 
L 998.37234 304.873945 
L 1000.393415 302.663481 
L 1002.414491 302.663481 
L 1004.435566 302.937355 
L 1006.456642 302.937355 
L 1008.477717 303.735848 
L 1012.519868 303.808881 
L 1014.540943 304.720576 
L 1020.60417 304.645108 
L 1022.625245 305.268323 
L 1024.646321 305.268323 
L 1026.667396 304.816736 
L 1028.688472 303.989029 
L 1030.709547 303.989029 
L 1032.730623 303.480233 
L 1034.751698 303.480233 
L 1036.772774 302.347005 
L 1038.793849 302.347005 
L 1040.814925 301.862553 
L 1042.836 301.862553 
L 1044.857075 303.357294 
L 1172.18483 303.357294 
L 1174.205906 90.051211 
L 1259.091075 90.051211 
L 1259.091075 90.051211 
" clip-path="url(#pb2c1666a7e)" style="fill: none; stroke: #000000; stroke-width: 8.4; stroke-linecap: square"/>
   </g>
   <g id="patch_4">
    <path d="M 185.9 549.04 
L 185.9 58.32 
" style="fill: none; stroke: #d3d3d3; stroke-width: 0.8; stroke-linejoin: miter; stroke-linecap: square"/>
   </g>
   <g id="patch_5">
    <path d="M 1257.07 549.04 
L 1257.07 58.32 
" style="fill: none; stroke: #d3d3d3; stroke-width: 7; stroke-linejoin: miter; stroke-linecap: square"/>
   </g>
   <g id="patch_6">
    <path d="M 185.9 549.04 
L 1257.07 549.04 
" style="fill: none; stroke: #d3d3d3; stroke-width: 0.8; stroke-linejoin: miter; stroke-linecap: square"/>
   </g>
  </g>
 </g>
 <defs>
  <clipPath id="pb2c1666a7e">
   <rect x="185.9" y="58.32" width="1071.17" height="490.72"/>
  </clipPath>
 </defs>
</svg>
