<?xml version="1.0" encoding="utf-8" standalone="no"?>
<!DOCTYPE svg PUBLIC "-//W3C//DTD SVG 1.1//EN"
  "http://www.w3.org/Graphics/SVG/1.1/DTD/svg11.dtd">
<svg xmlns:xlink="http://www.w3.org/1999/xlink" width="1224pt" height="720pt" viewBox="0 0 1224 720" xmlns="http://www.w3.org/2000/svg" version="1.1">
 <metadata>
  <rdf:RDF xmlns:dc="http://purl.org/dc/elements/1.1/" xmlns:cc="http://creativecommons.org/ns#" xmlns:rdf="http://www.w3.org/1999/02/22-rdf-syntax-ns#">
   <cc:Work>
    <dc:type rdf:resource="http://purl.org/dc/dcmitype/StillImage"/>
    <dc:date>2022-12-13T12:03:28.768235</dc:date>
    <dc:format>image/svg+xml</dc:format>
    <dc:creator>
     <cc:Agent>
      <dc:title>Matplotlib v3.6.1, https://matplotlib.org/</dc:title>
     </cc:Agent>
    </dc:creator>
   </cc:Work>
  </rdf:RDF>
 </metadata>
 <defs>
  <style type="text/css">*{stroke-linejoin: round; stroke-linecap: butt}</style>
 </defs>
 <g id="figure_1">
  <g id="patch_1">
   <path d="M 0 720 
L 1224 720 
L 1224 0 
L 0 0 
L 0 720 
z
" style="fill: none"/>
  </g>
  <g id="axes_1">
   <g id="patch_2">
    <path d="M 185.9 549.04 
L 1180.8 549.04 
L 1180.8 58.32 
L 185.9 58.32 
L 185.9 549.04 
z
" style="fill: none"/>
   </g>
   <g id="PolyCollection_1">
    <path d="M 185.9 1726.768 
L 185.9 1726.768 
L 209.037209 1726.768 
L 232.174419 1726.768 
L 255.311628 1726.768 
L 278.448837 1726.768 
L 301.586047 1726.768 
L 324.723256 1726.768 
L 347.860465 1726.768 
L 370.997674 1726.768 
L 394.134884 58.32 
L 417.272093 58.32 
L 440.409302 58.32 
L 463.546512 58.32 
L 486.683721 58.32 
L 509.82093 58.32 
L 532.95814 58.32 
L 556.095349 58.32 
L 579.232558 58.32 
L 602.369767 58.32 
L 625.506977 58.32 
L 648.644186 58.32 
L 671.781395 58.32 
L 694.918605 58.32 
L 718.055814 58.32 
L 741.193023 58.32 
L 764.330233 58.32 
L 787.467442 58.32 
L 810.604651 58.32 
L 833.74186 58.32 
L 856.87907 58.32 
L 880.016279 58.32 
L 903.153488 58.32 
L 926.290698 58.32 
L 949.427907 58.32 
L 972.565116 1726.768 
L 995.702326 1726.768 
L 1018.839535 1726.768 
L 1041.976744 1726.768 
L 1065.113953 1726.768 
L 1088.251163 1726.768 
L 1111.388372 1726.768 
L 1134.525581 1726.768 
L 1157.662791 1726.768 
L 1157.662791 1726.768 
L 1157.662791 1726.768 
L 1134.525581 1726.768 
L 1111.388372 1726.768 
L 1088.251163 1726.768 
L 1065.113953 1726.768 
L 1041.976744 1726.768 
L 1018.839535 1726.768 
L 995.702326 1726.768 
L 972.565116 1726.768 
L 949.427907 1726.768 
L 926.290698 1726.768 
L 903.153488 1726.768 
L 880.016279 1726.768 
L 856.87907 1726.768 
L 833.74186 1726.768 
L 810.604651 1726.768 
L 787.467442 1726.768 
L 764.330233 1726.768 
L 741.193023 1726.768 
L 718.055814 1726.768 
L 694.918605 1726.768 
L 671.781395 1726.768 
L 648.644186 1726.768 
L 625.506977 1726.768 
L 602.369767 1726.768 
L 579.232558 1726.768 
L 556.095349 1726.768 
L 532.95814 1726.768 
L 509.82093 1726.768 
L 486.683721 1726.768 
L 463.546512 1726.768 
L 440.409302 1726.768 
L 417.272093 1726.768 
L 394.134884 1726.768 
L 370.997674 1726.768 
L 347.860465 1726.768 
L 324.723256 1726.768 
L 301.586047 1726.768 
L 278.448837 1726.768 
L 255.311628 1726.768 
L 232.174419 1726.768 
L 209.037209 1726.768 
L 185.9 1726.768 
z
" clip-path="url(#pe52bf4c57f)" style="fill-opacity: 0.25; stroke: #000000; stroke-opacity: 0.25"/>
   </g>
   <g id="matplotlib.axis_1">
    <g id="xtick_1">
     <g id="line2d_1">
      <defs>
       <path id="m2972157ca9" d="M 0 0 
L 0 20 
" style="stroke: #d3d3d3; stroke-width: 7"/>
      </defs>
      <g>
       <use xlink:href="#m2972157ca9" x="185.9" y="549.04" style="fill: #d3d3d3; stroke: #d3d3d3; stroke-width: 7"/>
      </g>
     </g>
     <g id="text_1">
      <!-- 0.0 -->
      <g transform="translate(154.09375 609.43375) scale(0.4 -0.4)">
       <defs>
        <path id="DejaVuSans-30" d="M 2034 4250 
Q 1547 4250 1301 3770 
Q 1056 3291 1056 2328 
Q 1056 1369 1301 889 
Q 1547 409 2034 409 
Q 2525 409 2770 889 
Q 3016 1369 3016 2328 
Q 3016 3291 2770 3770 
Q 2525 4250 2034 4250 
z
M 2034 4750 
Q 2819 4750 3233 4129 
Q 3647 3509 3647 2328 
Q 3647 1150 3233 529 
Q 2819 -91 2034 -91 
Q 1250 -91 836 529 
Q 422 1150 422 2328 
Q 422 3509 836 4129 
Q 1250 4750 2034 4750 
z
" transform="scale(0.015625)"/>
        <path id="DejaVuSans-2e" d="M 684 794 
L 1344 794 
L 1344 0 
L 684 0 
L 684 794 
z
" transform="scale(0.015625)"/>
       </defs>
       <use xlink:href="#DejaVuSans-30"/>
       <use xlink:href="#DejaVuSans-2e" x="63.623047"/>
       <use xlink:href="#DejaVuSans-30" x="95.410156"/>
      </g>
     </g>
    </g>
    <g id="xtick_2">
     <g id="line2d_2">
      <g>
       <use xlink:href="#m2972157ca9" x="286.54686" y="549.04" style="fill: #d3d3d3; stroke: #d3d3d3; stroke-width: 7"/>
      </g>
     </g>
     <g id="text_2">
      <!-- 0.5 -->
      <g transform="translate(254.74061 609.43375) scale(0.4 -0.4)">
       <defs>
        <path id="DejaVuSans-35" d="M 691 4666 
L 3169 4666 
L 3169 4134 
L 1269 4134 
L 1269 2991 
Q 1406 3038 1543 3061 
Q 1681 3084 1819 3084 
Q 2600 3084 3056 2656 
Q 3513 2228 3513 1497 
Q 3513 744 3044 326 
Q 2575 -91 1722 -91 
Q 1428 -91 1123 -41 
Q 819 9 494 109 
L 494 744 
Q 775 591 1075 516 
Q 1375 441 1709 441 
Q 2250 441 2565 725 
Q 2881 1009 2881 1497 
Q 2881 1984 2565 2268 
Q 2250 2553 1709 2553 
Q 1456 2553 1204 2497 
Q 953 2441 691 2322 
L 691 4666 
z
" transform="scale(0.015625)"/>
       </defs>
       <use xlink:href="#DejaVuSans-30"/>
       <use xlink:href="#DejaVuSans-2e" x="63.623047"/>
       <use xlink:href="#DejaVuSans-35" x="95.410156"/>
      </g>
     </g>
    </g>
    <g id="xtick_3">
     <g id="line2d_3">
      <g>
       <use xlink:href="#m2972157ca9" x="387.193721" y="549.04" style="fill: #d3d3d3; stroke: #d3d3d3; stroke-width: 7"/>
      </g>
     </g>
     <g id="text_3">
      <!-- 1.0 -->
      <g transform="translate(355.387471 609.43375) scale(0.4 -0.4)">
       <defs>
        <path id="DejaVuSans-31" d="M 794 531 
L 1825 531 
L 1825 4091 
L 703 3866 
L 703 4441 
L 1819 4666 
L 2450 4666 
L 2450 531 
L 3481 531 
L 3481 0 
L 794 0 
L 794 531 
z
" transform="scale(0.015625)"/>
       </defs>
       <use xlink:href="#DejaVuSans-31"/>
       <use xlink:href="#DejaVuSans-2e" x="63.623047"/>
       <use xlink:href="#DejaVuSans-30" x="95.410156"/>
      </g>
     </g>
    </g>
    <g id="xtick_4">
     <g id="line2d_4">
      <g>
       <use xlink:href="#m2972157ca9" x="487.840581" y="549.04" style="fill: #d3d3d3; stroke: #d3d3d3; stroke-width: 7"/>
      </g>
     </g>
     <g id="text_4">
      <!-- 1.5 -->
      <g transform="translate(456.034331 609.43375) scale(0.4 -0.4)">
       <use xlink:href="#DejaVuSans-31"/>
       <use xlink:href="#DejaVuSans-2e" x="63.623047"/>
       <use xlink:href="#DejaVuSans-35" x="95.410156"/>
      </g>
     </g>
    </g>
    <g id="xtick_5">
     <g id="line2d_5">
      <g>
       <use xlink:href="#m2972157ca9" x="588.487442" y="549.04" style="fill: #d3d3d3; stroke: #d3d3d3; stroke-width: 7"/>
      </g>
     </g>
     <g id="text_5">
      <!-- 2.0 -->
      <g transform="translate(556.681192 609.43375) scale(0.4 -0.4)">
       <defs>
        <path id="DejaVuSans-32" d="M 1228 531 
L 3431 531 
L 3431 0 
L 469 0 
L 469 531 
Q 828 903 1448 1529 
Q 2069 2156 2228 2338 
Q 2531 2678 2651 2914 
Q 2772 3150 2772 3378 
Q 2772 3750 2511 3984 
Q 2250 4219 1831 4219 
Q 1534 4219 1204 4116 
Q 875 4013 500 3803 
L 500 4441 
Q 881 4594 1212 4672 
Q 1544 4750 1819 4750 
Q 2544 4750 2975 4387 
Q 3406 4025 3406 3419 
Q 3406 3131 3298 2873 
Q 3191 2616 2906 2266 
Q 2828 2175 2409 1742 
Q 1991 1309 1228 531 
z
" transform="scale(0.015625)"/>
       </defs>
       <use xlink:href="#DejaVuSans-32"/>
       <use xlink:href="#DejaVuSans-2e" x="63.623047"/>
       <use xlink:href="#DejaVuSans-30" x="95.410156"/>
      </g>
     </g>
    </g>
    <g id="xtick_6">
     <g id="line2d_6">
      <g>
       <use xlink:href="#m2972157ca9" x="689.134302" y="549.04" style="fill: #d3d3d3; stroke: #d3d3d3; stroke-width: 7"/>
      </g>
     </g>
     <g id="text_6">
      <!-- 2.5 -->
      <g transform="translate(657.328052 609.43375) scale(0.4 -0.4)">
       <use xlink:href="#DejaVuSans-32"/>
       <use xlink:href="#DejaVuSans-2e" x="63.623047"/>
       <use xlink:href="#DejaVuSans-35" x="95.410156"/>
      </g>
     </g>
    </g>
    <g id="xtick_7">
     <g id="line2d_7">
      <g>
       <use xlink:href="#m2972157ca9" x="789.781163" y="549.04" style="fill: #d3d3d3; stroke: #d3d3d3; stroke-width: 7"/>
      </g>
     </g>
     <g id="text_7">
      <!-- 3.0 -->
      <g transform="translate(757.974913 609.43375) scale(0.4 -0.4)">
       <defs>
        <path id="DejaVuSans-33" d="M 2597 2516 
Q 3050 2419 3304 2112 
Q 3559 1806 3559 1356 
Q 3559 666 3084 287 
Q 2609 -91 1734 -91 
Q 1441 -91 1130 -33 
Q 819 25 488 141 
L 488 750 
Q 750 597 1062 519 
Q 1375 441 1716 441 
Q 2309 441 2620 675 
Q 2931 909 2931 1356 
Q 2931 1769 2642 2001 
Q 2353 2234 1838 2234 
L 1294 2234 
L 1294 2753 
L 1863 2753 
Q 2328 2753 2575 2939 
Q 2822 3125 2822 3475 
Q 2822 3834 2567 4026 
Q 2313 4219 1838 4219 
Q 1578 4219 1281 4162 
Q 984 4106 628 3988 
L 628 4550 
Q 988 4650 1302 4700 
Q 1616 4750 1894 4750 
Q 2613 4750 3031 4423 
Q 3450 4097 3450 3541 
Q 3450 3153 3228 2886 
Q 3006 2619 2597 2516 
z
" transform="scale(0.015625)"/>
       </defs>
       <use xlink:href="#DejaVuSans-33"/>
       <use xlink:href="#DejaVuSans-2e" x="63.623047"/>
       <use xlink:href="#DejaVuSans-30" x="95.410156"/>
      </g>
     </g>
    </g>
    <g id="xtick_8">
     <g id="line2d_8">
      <g>
       <use xlink:href="#m2972157ca9" x="890.428023" y="549.04" style="fill: #d3d3d3; stroke: #d3d3d3; stroke-width: 7"/>
      </g>
     </g>
     <g id="text_8">
      <!-- 3.5 -->
      <g transform="translate(858.621773 609.43375) scale(0.4 -0.4)">
       <use xlink:href="#DejaVuSans-33"/>
       <use xlink:href="#DejaVuSans-2e" x="63.623047"/>
       <use xlink:href="#DejaVuSans-35" x="95.410156"/>
      </g>
     </g>
    </g>
    <g id="xtick_9">
     <g id="line2d_9">
      <g>
       <use xlink:href="#m2972157ca9" x="991.074884" y="549.04" style="fill: #d3d3d3; stroke: #d3d3d3; stroke-width: 7"/>
      </g>
     </g>
     <g id="text_9">
      <!-- 4.0 -->
      <g transform="translate(959.268634 609.43375) scale(0.4 -0.4)">
       <defs>
        <path id="DejaVuSans-34" d="M 2419 4116 
L 825 1625 
L 2419 1625 
L 2419 4116 
z
M 2253 4666 
L 3047 4666 
L 3047 1625 
L 3713 1625 
L 3713 1100 
L 3047 1100 
L 3047 0 
L 2419 0 
L 2419 1100 
L 313 1100 
L 313 1709 
L 2253 4666 
z
" transform="scale(0.015625)"/>
       </defs>
       <use xlink:href="#DejaVuSans-34"/>
       <use xlink:href="#DejaVuSans-2e" x="63.623047"/>
       <use xlink:href="#DejaVuSans-30" x="95.410156"/>
      </g>
     </g>
    </g>
    <g id="xtick_10">
     <g id="line2d_10">
      <g>
       <use xlink:href="#m2972157ca9" x="1091.721744" y="549.04" style="fill: #d3d3d3; stroke: #d3d3d3; stroke-width: 7"/>
      </g>
     </g>
     <g id="text_10">
      <!-- 4.5 -->
      <g transform="translate(1059.915494 609.43375) scale(0.4 -0.4)">
       <use xlink:href="#DejaVuSans-34"/>
       <use xlink:href="#DejaVuSans-2e" x="63.623047"/>
       <use xlink:href="#DejaVuSans-35" x="95.410156"/>
      </g>
     </g>
    </g>
    <g id="text_11">
     <!-- Time (s) -->
     <g transform="translate(602.034375 668.14625) scale(0.4 -0.4)">
      <defs>
       <path id="DejaVuSans-54" d="M -19 4666 
L 3928 4666 
L 3928 4134 
L 2272 4134 
L 2272 0 
L 1638 0 
L 1638 4134 
L -19 4134 
L -19 4666 
z
" transform="scale(0.015625)"/>
       <path id="DejaVuSans-69" d="M 603 3500 
L 1178 3500 
L 1178 0 
L 603 0 
L 603 3500 
z
M 603 4863 
L 1178 4863 
L 1178 4134 
L 603 4134 
L 603 4863 
z
" transform="scale(0.015625)"/>
       <path id="DejaVuSans-6d" d="M 3328 2828 
Q 3544 3216 3844 3400 
Q 4144 3584 4550 3584 
Q 5097 3584 5394 3201 
Q 5691 2819 5691 2113 
L 5691 0 
L 5113 0 
L 5113 2094 
Q 5113 2597 4934 2840 
Q 4756 3084 4391 3084 
Q 3944 3084 3684 2787 
Q 3425 2491 3425 1978 
L 3425 0 
L 2847 0 
L 2847 2094 
Q 2847 2600 2669 2842 
Q 2491 3084 2119 3084 
Q 1678 3084 1418 2786 
Q 1159 2488 1159 1978 
L 1159 0 
L 581 0 
L 581 3500 
L 1159 3500 
L 1159 2956 
Q 1356 3278 1631 3431 
Q 1906 3584 2284 3584 
Q 2666 3584 2933 3390 
Q 3200 3197 3328 2828 
z
" transform="scale(0.015625)"/>
       <path id="DejaVuSans-65" d="M 3597 1894 
L 3597 1613 
L 953 1613 
Q 991 1019 1311 708 
Q 1631 397 2203 397 
Q 2534 397 2845 478 
Q 3156 559 3463 722 
L 3463 178 
Q 3153 47 2828 -22 
Q 2503 -91 2169 -91 
Q 1331 -91 842 396 
Q 353 884 353 1716 
Q 353 2575 817 3079 
Q 1281 3584 2069 3584 
Q 2775 3584 3186 3129 
Q 3597 2675 3597 1894 
z
M 3022 2063 
Q 3016 2534 2758 2815 
Q 2500 3097 2075 3097 
Q 1594 3097 1305 2825 
Q 1016 2553 972 2059 
L 3022 2063 
z
" transform="scale(0.015625)"/>
       <path id="DejaVuSans-20" transform="scale(0.015625)"/>
       <path id="DejaVuSans-28" d="M 1984 4856 
Q 1566 4138 1362 3434 
Q 1159 2731 1159 2009 
Q 1159 1288 1364 580 
Q 1569 -128 1984 -844 
L 1484 -844 
Q 1016 -109 783 600 
Q 550 1309 550 2009 
Q 550 2706 781 3412 
Q 1013 4119 1484 4856 
L 1984 4856 
z
" transform="scale(0.015625)"/>
       <path id="DejaVuSans-73" d="M 2834 3397 
L 2834 2853 
Q 2591 2978 2328 3040 
Q 2066 3103 1784 3103 
Q 1356 3103 1142 2972 
Q 928 2841 928 2578 
Q 928 2378 1081 2264 
Q 1234 2150 1697 2047 
L 1894 2003 
Q 2506 1872 2764 1633 
Q 3022 1394 3022 966 
Q 3022 478 2636 193 
Q 2250 -91 1575 -91 
Q 1294 -91 989 -36 
Q 684 19 347 128 
L 347 722 
Q 666 556 975 473 
Q 1284 391 1588 391 
Q 1994 391 2212 530 
Q 2431 669 2431 922 
Q 2431 1156 2273 1281 
Q 2116 1406 1581 1522 
L 1381 1569 
Q 847 1681 609 1914 
Q 372 2147 372 2553 
Q 372 3047 722 3315 
Q 1072 3584 1716 3584 
Q 2034 3584 2315 3537 
Q 2597 3491 2834 3397 
z
" transform="scale(0.015625)"/>
       <path id="DejaVuSans-29" d="M 513 4856 
L 1013 4856 
Q 1481 4119 1714 3412 
Q 1947 2706 1947 2009 
Q 1947 1309 1714 600 
Q 1481 -109 1013 -844 
L 513 -844 
Q 928 -128 1133 580 
Q 1338 1288 1338 2009 
Q 1338 2731 1133 3434 
Q 928 4138 513 4856 
z
" transform="scale(0.015625)"/>
      </defs>
      <use xlink:href="#DejaVuSans-54"/>
      <use xlink:href="#DejaVuSans-69" x="57.958984"/>
      <use xlink:href="#DejaVuSans-6d" x="85.742188"/>
      <use xlink:href="#DejaVuSans-65" x="183.154297"/>
      <use xlink:href="#DejaVuSans-20" x="244.677734"/>
      <use xlink:href="#DejaVuSans-28" x="276.464844"/>
      <use xlink:href="#DejaVuSans-73" x="315.478516"/>
      <use xlink:href="#DejaVuSans-29" x="367.578125"/>
     </g>
    </g>
   </g>
   <g id="matplotlib.axis_2">
    <g id="ytick_1">
     <g id="line2d_11">
      <defs>
       <path id="m2258c1afde" d="M 0 0 
L -20 0 
" style="stroke: #d3d3d3; stroke-width: 7"/>
      </defs>
      <g>
       <use xlink:href="#m2258c1afde" x="185.9" y="549.04" style="fill: #d3d3d3; stroke: #d3d3d3; stroke-width: 7"/>
      </g>
     </g>
     <g id="text_12">
      <!-- 24 -->
      <g transform="translate(105 564.236875) scale(0.4 -0.4)">
       <use xlink:href="#DejaVuSans-32"/>
       <use xlink:href="#DejaVuSans-34" x="63.623047"/>
      </g>
     </g>
    </g>
    <g id="ytick_2">
     <g id="line2d_12">
      <g>
       <use xlink:href="#m2258c1afde" x="185.9" y="450.896" style="fill: #d3d3d3; stroke: #d3d3d3; stroke-width: 7"/>
      </g>
     </g>
     <g id="text_13">
      <!-- 26 -->
      <g transform="translate(105 466.092875) scale(0.4 -0.4)">
       <defs>
        <path id="DejaVuSans-36" d="M 2113 2584 
Q 1688 2584 1439 2293 
Q 1191 2003 1191 1497 
Q 1191 994 1439 701 
Q 1688 409 2113 409 
Q 2538 409 2786 701 
Q 3034 994 3034 1497 
Q 3034 2003 2786 2293 
Q 2538 2584 2113 2584 
z
M 3366 4563 
L 3366 3988 
Q 3128 4100 2886 4159 
Q 2644 4219 2406 4219 
Q 1781 4219 1451 3797 
Q 1122 3375 1075 2522 
Q 1259 2794 1537 2939 
Q 1816 3084 2150 3084 
Q 2853 3084 3261 2657 
Q 3669 2231 3669 1497 
Q 3669 778 3244 343 
Q 2819 -91 2113 -91 
Q 1303 -91 875 529 
Q 447 1150 447 2328 
Q 447 3434 972 4092 
Q 1497 4750 2381 4750 
Q 2619 4750 2861 4703 
Q 3103 4656 3366 4563 
z
" transform="scale(0.015625)"/>
       </defs>
       <use xlink:href="#DejaVuSans-32"/>
       <use xlink:href="#DejaVuSans-36" x="63.623047"/>
      </g>
     </g>
    </g>
    <g id="ytick_3">
     <g id="line2d_13">
      <g>
       <use xlink:href="#m2258c1afde" x="185.9" y="352.752" style="fill: #d3d3d3; stroke: #d3d3d3; stroke-width: 7"/>
      </g>
     </g>
     <g id="text_14">
      <!-- 28 -->
      <g transform="translate(105 367.948875) scale(0.4 -0.4)">
       <defs>
        <path id="DejaVuSans-38" d="M 2034 2216 
Q 1584 2216 1326 1975 
Q 1069 1734 1069 1313 
Q 1069 891 1326 650 
Q 1584 409 2034 409 
Q 2484 409 2743 651 
Q 3003 894 3003 1313 
Q 3003 1734 2745 1975 
Q 2488 2216 2034 2216 
z
M 1403 2484 
Q 997 2584 770 2862 
Q 544 3141 544 3541 
Q 544 4100 942 4425 
Q 1341 4750 2034 4750 
Q 2731 4750 3128 4425 
Q 3525 4100 3525 3541 
Q 3525 3141 3298 2862 
Q 3072 2584 2669 2484 
Q 3125 2378 3379 2068 
Q 3634 1759 3634 1313 
Q 3634 634 3220 271 
Q 2806 -91 2034 -91 
Q 1263 -91 848 271 
Q 434 634 434 1313 
Q 434 1759 690 2068 
Q 947 2378 1403 2484 
z
M 1172 3481 
Q 1172 3119 1398 2916 
Q 1625 2713 2034 2713 
Q 2441 2713 2670 2916 
Q 2900 3119 2900 3481 
Q 2900 3844 2670 4047 
Q 2441 4250 2034 4250 
Q 1625 4250 1398 4047 
Q 1172 3844 1172 3481 
z
" transform="scale(0.015625)"/>
       </defs>
       <use xlink:href="#DejaVuSans-32"/>
       <use xlink:href="#DejaVuSans-38" x="63.623047"/>
      </g>
     </g>
    </g>
    <g id="ytick_4">
     <g id="line2d_14">
      <g>
       <use xlink:href="#m2258c1afde" x="185.9" y="254.608" style="fill: #d3d3d3; stroke: #d3d3d3; stroke-width: 7"/>
      </g>
     </g>
     <g id="text_15">
      <!-- 30 -->
      <g transform="translate(105 269.804875) scale(0.4 -0.4)">
       <use xlink:href="#DejaVuSans-33"/>
       <use xlink:href="#DejaVuSans-30" x="63.623047"/>
      </g>
     </g>
    </g>
    <g id="ytick_5">
     <g id="line2d_15">
      <g>
       <use xlink:href="#m2258c1afde" x="185.9" y="156.464" style="fill: #d3d3d3; stroke: #d3d3d3; stroke-width: 7"/>
      </g>
     </g>
     <g id="text_16">
      <!-- 32 -->
      <g transform="translate(105 171.660875) scale(0.4 -0.4)">
       <use xlink:href="#DejaVuSans-33"/>
       <use xlink:href="#DejaVuSans-32" x="63.623047"/>
      </g>
     </g>
    </g>
    <g id="ytick_6">
     <g id="line2d_16">
      <g>
       <use xlink:href="#m2258c1afde" x="185.9" y="58.32" style="fill: #d3d3d3; stroke: #d3d3d3; stroke-width: 7"/>
      </g>
     </g>
     <g id="text_17">
      <!-- 34 -->
      <g transform="translate(105 73.516875) scale(0.4 -0.4)">
       <use xlink:href="#DejaVuSans-33"/>
       <use xlink:href="#DejaVuSans-34" x="63.623047"/>
      </g>
     </g>
    </g>
    <g id="text_18">
     <!-- Temperature ($^\circ$C) -->
     <g transform="translate(76.6 485.28) rotate(-90) scale(0.4 -0.4)">
      <defs>
       <path id="DejaVuSans-70" d="M 1159 525 
L 1159 -1331 
L 581 -1331 
L 581 3500 
L 1159 3500 
L 1159 2969 
Q 1341 3281 1617 3432 
Q 1894 3584 2278 3584 
Q 2916 3584 3314 3078 
Q 3713 2572 3713 1747 
Q 3713 922 3314 415 
Q 2916 -91 2278 -91 
Q 1894 -91 1617 61 
Q 1341 213 1159 525 
z
M 3116 1747 
Q 3116 2381 2855 2742 
Q 2594 3103 2138 3103 
Q 1681 3103 1420 2742 
Q 1159 2381 1159 1747 
Q 1159 1113 1420 752 
Q 1681 391 2138 391 
Q 2594 391 2855 752 
Q 3116 1113 3116 1747 
z
" transform="scale(0.015625)"/>
       <path id="DejaVuSans-72" d="M 2631 2963 
Q 2534 3019 2420 3045 
Q 2306 3072 2169 3072 
Q 1681 3072 1420 2755 
Q 1159 2438 1159 1844 
L 1159 0 
L 581 0 
L 581 3500 
L 1159 3500 
L 1159 2956 
Q 1341 3275 1631 3429 
Q 1922 3584 2338 3584 
Q 2397 3584 2469 3576 
Q 2541 3569 2628 3553 
L 2631 2963 
z
" transform="scale(0.015625)"/>
       <path id="DejaVuSans-61" d="M 2194 1759 
Q 1497 1759 1228 1600 
Q 959 1441 959 1056 
Q 959 750 1161 570 
Q 1363 391 1709 391 
Q 2188 391 2477 730 
Q 2766 1069 2766 1631 
L 2766 1759 
L 2194 1759 
z
M 3341 1997 
L 3341 0 
L 2766 0 
L 2766 531 
Q 2569 213 2275 61 
Q 1981 -91 1556 -91 
Q 1019 -91 701 211 
Q 384 513 384 1019 
Q 384 1609 779 1909 
Q 1175 2209 1959 2209 
L 2766 2209 
L 2766 2266 
Q 2766 2663 2505 2880 
Q 2244 3097 1772 3097 
Q 1472 3097 1187 3025 
Q 903 2953 641 2809 
L 641 3341 
Q 956 3463 1253 3523 
Q 1550 3584 1831 3584 
Q 2591 3584 2966 3190 
Q 3341 2797 3341 1997 
z
" transform="scale(0.015625)"/>
       <path id="DejaVuSans-74" d="M 1172 4494 
L 1172 3500 
L 2356 3500 
L 2356 3053 
L 1172 3053 
L 1172 1153 
Q 1172 725 1289 603 
Q 1406 481 1766 481 
L 2356 481 
L 2356 0 
L 1766 0 
Q 1100 0 847 248 
Q 594 497 594 1153 
L 594 3053 
L 172 3053 
L 172 3500 
L 594 3500 
L 594 4494 
L 1172 4494 
z
" transform="scale(0.015625)"/>
       <path id="DejaVuSans-75" d="M 544 1381 
L 544 3500 
L 1119 3500 
L 1119 1403 
Q 1119 906 1312 657 
Q 1506 409 1894 409 
Q 2359 409 2629 706 
Q 2900 1003 2900 1516 
L 2900 3500 
L 3475 3500 
L 3475 0 
L 2900 0 
L 2900 538 
Q 2691 219 2414 64 
Q 2138 -91 1772 -91 
Q 1169 -91 856 284 
Q 544 659 544 1381 
z
M 1991 3584 
L 1991 3584 
z
" transform="scale(0.015625)"/>
       <path id="DejaVuSans-2218" d="M 2000 2619 
Q 1750 2619 1578 2445 
Q 1406 2272 1406 2022 
Q 1406 1775 1578 1605 
Q 1750 1435 2000 1435 
Q 2250 1435 2422 1605 
Q 2594 1775 2594 2022 
Q 2594 2269 2420 2444 
Q 2247 2619 2000 2619 
z
M 2000 3022 
Q 2200 3022 2384 2945 
Q 2569 2869 2703 2725 
Q 2847 2585 2919 2406 
Q 2991 2228 2991 2022 
Q 2991 1610 2702 1324 
Q 2413 1038 1994 1038 
Q 1572 1038 1290 1319 
Q 1009 1600 1009 2022 
Q 1009 2441 1296 2731 
Q 1584 3022 2000 3022 
z
" transform="scale(0.015625)"/>
       <path id="DejaVuSans-43" d="M 4122 4306 
L 4122 3641 
Q 3803 3938 3442 4084 
Q 3081 4231 2675 4231 
Q 1875 4231 1450 3742 
Q 1025 3253 1025 2328 
Q 1025 1406 1450 917 
Q 1875 428 2675 428 
Q 3081 428 3442 575 
Q 3803 722 4122 1019 
L 4122 359 
Q 3791 134 3420 21 
Q 3050 -91 2638 -91 
Q 1578 -91 968 557 
Q 359 1206 359 2328 
Q 359 3453 968 4101 
Q 1578 4750 2638 4750 
Q 3056 4750 3426 4639 
Q 3797 4528 4122 4306 
z
" transform="scale(0.015625)"/>
      </defs>
      <use xlink:href="#DejaVuSans-54" transform="translate(0 0.125)"/>
      <use xlink:href="#DejaVuSans-65" transform="translate(61.083984 0.125)"/>
      <use xlink:href="#DejaVuSans-6d" transform="translate(122.607422 0.125)"/>
      <use xlink:href="#DejaVuSans-70" transform="translate(220.019531 0.125)"/>
      <use xlink:href="#DejaVuSans-65" transform="translate(283.496094 0.125)"/>
      <use xlink:href="#DejaVuSans-72" transform="translate(345.019531 0.125)"/>
      <use xlink:href="#DejaVuSans-61" transform="translate(386.132812 0.125)"/>
      <use xlink:href="#DejaVuSans-74" transform="translate(447.412109 0.125)"/>
      <use xlink:href="#DejaVuSans-75" transform="translate(486.621094 0.125)"/>
      <use xlink:href="#DejaVuSans-72" transform="translate(550 0.125)"/>
      <use xlink:href="#DejaVuSans-65" transform="translate(591.113281 0.125)"/>
      <use xlink:href="#DejaVuSans-20" transform="translate(652.636719 0.125)"/>
      <use xlink:href="#DejaVuSans-28" transform="translate(684.423828 0.125)"/>
      <use xlink:href="#DejaVuSans-2218" transform="translate(738.032227 38.40625) scale(0.7)"/>
      <use xlink:href="#DejaVuSans-43" transform="translate(798.222656 0.125)"/>
      <use xlink:href="#DejaVuSans-29" transform="translate(868.046875 0.125)"/>
     </g>
    </g>
   </g>
   <g id="line2d_17">
    <path d="M 185.9 232.492885 
L 209.037209 233.474325 
L 232.174419 232.492885 
L 255.311628 232.983605 
L 278.448837 233.965045 
L 301.586047 234.455765 
L 324.723256 232.002165 
L 347.860465 242.307285 
L 370.997674 272.241205 
L 394.134884 224.150645 
L 417.272093 332.599765 
L 440.409302 359.098645 
L 463.546512 378.727445 
L 486.683721 387.069685 
L 509.82093 396.884085 
L 532.95814 404.735605 
L 556.095349 417.003605 
L 579.232558 428.290165 
L 602.369767 436.141685 
L 625.506977 448.409685 
L 648.644186 454.298325 
L 671.781395 455.279765 
L 694.918605 467.547765 
L 718.055814 470.982805 
L 741.193023 473.927125 
L 764.330233 476.380725 
L 787.467442 484.722965 
L 810.604651 488.648725 
L 833.74186 492.574485 
L 856.87907 495.518805 
L 880.016279 499.444565 
L 903.153488 505.333205 
L 926.290698 505.823925 
L 949.427907 440.558165 
L 972.565116 412.587125 
L 995.702326 389.032565 
L 1018.839535 375.783125 
L 1041.976744 361.061525 
L 1065.113953 349.284245 
L 1088.251163 341.923445 
L 1111.388372 334.562645 
L 1134.525581 330.636885 
L 1157.662791 326.220405 
" clip-path="url(#pe52bf4c57f)" style="fill: none; stroke: #0f4c81; stroke-opacity: 0.6; stroke-width: 4; stroke-linecap: square"/>
   </g>
   <g id="line2d_18">
    <path d="M 185.9 232.165739 
L 209.037209 232.656459 
L 232.174419 233.637899 
L 255.311628 234.619339 
L 278.448837 234.128619 
L 301.586047 229.221419 
L 324.723256 228.730699 
L 347.860465 229.221419 
L 370.997674 234.128619 
L 394.134884 202.231819 
L 417.272093 275.839819 
L 440.409302 294.977899 
L 463.546512 321.476779 
L 486.683721 334.726219 
L 509.82093 344.540619 
L 532.95814 357.790059 
L 556.095349 369.567339 
L 579.232558 377.418859 
L 602.369767 381.835339 
L 625.506977 388.705419 
L 648.644186 398.029099 
L 671.781395 401.954859 
L 694.918605 411.278539 
L 718.055814 416.676459 
L 741.193023 419.620779 
L 764.330233 428.453739 
L 787.467442 430.907339 
L 810.604651 435.814539 
L 833.74186 439.249579 
L 856.87907 451.026859 
L 880.016279 453.480459 
L 903.153488 454.461899 
L 926.290698 455.443339 
L 949.427907 456.424779 
L 972.565116 434.833099 
L 995.702326 402.445579 
L 1018.839535 375.455979 
L 1041.976744 365.150859 
L 1065.113953 363.187979 
L 1088.251163 352.882859 
L 1111.388372 351.410699 
L 1134.525581 347.975659 
L 1157.662791 340.124139 
" clip-path="url(#pe52bf4c57f)" style="fill: none; stroke: #0f4c81; stroke-opacity: 0.6; stroke-width: 4; stroke-linecap: square"/>
   </g>
   <g id="line2d_19">
    <path d="M 185.9 233.147179 
L 209.037209 233.637899 
L 232.174419 231.675019 
L 255.311628 228.730699 
L 278.448837 227.749259 
L 301.586047 228.239979 
L 324.723256 227.258539 
L 347.860465 224.314219 
L 370.997674 225.295659 
L 394.134884 228.730699 
L 417.272093 293.996459 
L 440.409302 319.023179 
L 463.546512 334.235499 
L 486.683721 344.049899 
L 509.82093 356.808619 
L 532.95814 360.243659 
L 556.095349 372.020939 
L 579.232558 384.779659 
L 602.369767 395.084779 
L 625.506977 393.121899 
L 648.644186 404.899179 
L 671.781395 418.148619 
L 694.918605 416.676459 
L 718.055814 422.565099 
L 741.193023 436.305259 
L 764.330233 433.360939 
L 787.467442 430.907339 
L 810.604651 433.851659 
L 833.74186 444.156779 
L 856.87907 445.628939 
L 880.016279 460.841259 
L 903.153488 472.127819 
L 926.290698 465.748459 
L 949.427907 457.896939 
L 972.565116 429.925899 
L 995.702326 389.196139 
L 1018.839535 380.363179 
L 1041.976744 364.660139 
L 1065.113953 357.790059 
L 1088.251163 350.919979 
L 1111.388372 340.614859 
L 1134.525581 336.198379 
L 1157.662791 334.235499 
" clip-path="url(#pe52bf4c57f)" style="fill: none; stroke: #0f4c81; stroke-opacity: 0.6; stroke-width: 4; stroke-linecap: square"/>
   </g>
   <g id="line2d_20">
    <path d="M 185.9 233.474325 
L 209.037209 232.983605 
L 232.174419 232.002165 
L 255.311628 236.909365 
L 278.448837 235.927925 
L 301.586047 237.890805 
L 324.723256 214.336245 
L 347.860465 254.084565 
L 370.997674 254.084565 
L 394.134884 254.084565 
L 417.272093 304.628725 
L 440.409302 407.189205 
L 463.546512 417.494325 
L 486.683721 420.438645 
L 509.82093 422.892245 
L 532.95814 415.040725 
L 556.095349 419.947925 
L 579.232558 419.457205 
L 602.369767 426.327285 
L 625.506977 429.762325 
L 648.644186 434.178805 
L 671.781395 436.141685 
L 694.918605 435.160245 
L 718.055814 436.632405 
L 741.193023 432.706645 
L 764.330233 444.974645 
L 787.467442 446.446805 
L 810.604651 451.354005 
L 833.74186 451.844725 
L 856.87907 425.345845 
L 880.016279 424.855125 
L 903.153488 424.855125 
L 926.290698 462.640565 
L 949.427907 465.094165 
L 972.565116 468.038485 
L 995.702326 437.123125 
L 1018.839535 367.440885 
L 1041.976744 352.228565 
L 1065.113953 332.599765 
L 1088.251163 326.711125 
L 1111.388372 321.803925 
L 1134.525581 314.933845 
L 1157.662791 304.628725 
" clip-path="url(#pe52bf4c57f)" style="fill: none; stroke: #0f4c81; stroke-opacity: 0.6; stroke-width: 4; stroke-linecap: square"/>
   </g>
   <g id="line2d_21">
    <path d="M 185.9 234.782912 
L 209.037209 234.782912 
L 232.174419 228.894272 
L 255.311628 229.875712 
L 278.448837 230.366432 
L 301.586047 229.875712 
L 324.723256 229.875712 
L 347.860465 228.894272 
L 370.997674 228.894272 
L 394.134884 263.735392 
L 417.272093 412.423552 
L 440.409302 437.940992 
L 463.546512 444.811072 
L 486.683721 447.755392 
L 509.82093 453.153312 
L 532.95814 461.495552 
L 556.095349 465.912032 
L 579.232558 470.328512 
L 602.369767 476.707872 
L 625.506977 484.068672 
L 648.644186 487.012992 
L 671.781395 488.975872 
L 694.918605 489.466592 
L 718.055814 491.429472 
L 741.193023 499.771712 
L 764.330233 499.771712 
L 787.467442 505.169632 
L 810.604651 511.548992 
L 833.74186 513.511872 
L 856.87907 515.965472 
L 880.016279 523.326272 
L 903.153488 525.779872 
L 926.290698 530.196352 
L 949.427907 529.705632 
L 972.565116 531.177792 
L 995.702326 429.598752 
L 1018.839535 393.776192 
L 1041.976744 385.433952 
L 1065.113953 381.017472 
L 1088.251163 374.147392 
L 1111.388372 371.693792 
L 1134.525581 372.184512 
L 1157.662791 387.396832 
" clip-path="url(#pe52bf4c57f)" style="fill: none; stroke: #0f4c81; stroke-opacity: 0.6; stroke-width: 4; stroke-linecap: square"/>
   </g>
   <g id="line2d_22">
    <path d="M 185.9 233.212608 
L 209.037209 233.50704 
L 232.174419 231.740448 
L 255.311628 232.623744 
L 278.448837 232.427456 
L 301.586047 231.936736 
L 324.723256 226.440672 
L 347.860465 235.764352 
L 370.997674 242.928864 
L 394.134884 234.586624 
L 417.272093 323.897664 
L 440.409302 363.645984 
L 463.546512 379.349024 
L 486.683721 386.807968 
L 509.82093 394.855776 
L 532.95814 399.86112 
L 556.095349 408.890368 
L 579.232558 416.05488 
L 602.369767 423.219392 
L 625.506977 428.8136 
L 648.644186 435.68368 
L 671.781395 440.10016 
L 694.918605 444.02592 
L 718.055814 447.657248 
L 741.193023 452.466304 
L 764.330233 456.588352 
L 787.467442 459.630816 
L 810.604651 464.243584 
L 833.74186 468.267488 
L 856.87907 466.697184 
L 880.016279 472.389536 
L 903.153488 476.511584 
L 926.290698 483.970528 
L 949.427907 469.935936 
L 972.565116 455.31248 
L 995.702326 409.479232 
L 1018.839535 378.563872 
L 1041.976744 365.707008 
L 1065.113953 356.775904 
L 1088.251163 349.31696 
L 1111.388372 344.017184 
L 1134.525581 340.385856 
L 1157.662791 338.52112 
" clip-path="url(#pe52bf4c57f)" style="fill: none; stroke: #0f4c81; stroke-width: 8.4; stroke-linecap: square"/>
   </g>
   <g id="patch_3">
    <path d="M 185.9 549.04 
L 185.9 58.32 
" style="fill: none; stroke: #d3d3d3; stroke-width: 7; stroke-linejoin: miter; stroke-linecap: square"/>
   </g>
   <g id="patch_4">
    <path d="M 185.9 549.04 
L 1180.8 549.04 
" style="fill: none; stroke: #d3d3d3; stroke-width: 7; stroke-linejoin: miter; stroke-linecap: square"/>
   </g>
  </g>
 </g>
 <defs>
  <clipPath id="pe52bf4c57f">
   <rect x="185.9" y="58.32" width="994.9" height="490.72"/>
  </clipPath>
 </defs>
</svg>
